<svg id="svg" version="1.1" xmlns="http://www.w3.org/2000/svg" xmlns:xlink="http://www.w3.org/1999/xlink" width="400" height="131.21951219512195" viewBox="0, 0, 400,131.21951219512195"><g id="svgg"><path id="path0" d="M8.749 11.875 C 8.700 12.081,8.679 32.725,8.704 57.750 L 8.750 103.250 22.417 103.250 L 36.083 103.250 36.129 57.750 C 36.154 32.725,36.134 12.081,36.084 11.875 L 35.994 11.500 22.417 11.500 L 8.840 11.500 8.749 11.875 M105.750 28.253 C 99.705 29.018,96.451 32.028,96.212 37.075 C 95.968 42.223,100.090 47.141,110.333 53.924 C 111.846 54.926,113.121 55.784,113.167 55.832 C 113.212 55.880,115.013 57.103,117.167 58.550 C 122.799 62.334,123.296 62.686,128.250 66.399 C 130.083 67.773,131.882 69.164,132.248 69.490 C 136.814 73.565,140.164 77.754,142.118 81.833 C 143.648 85.027,143.864 85.645,144.574 88.854 C 145.464 92.874,144.668 101.650,143.152 104.539 C 143.068 104.699,143.000 104.928,143.000 105.049 C 143.000 106.363,139.201 111.953,136.975 113.917 C 135.253 115.435,134.606 115.333,145.967 115.333 C 153.496 115.333,155.982 115.284,156.133 115.133 C 156.425 114.842,156.425 28.491,156.133 28.200 C 155.837 27.904,108.113 27.954,105.750 28.253 M281.583 28.685 C 280.575 28.760,279.337 28.908,278.833 29.013 C 277.249 29.342,275.263 29.835,274.917 29.986 C 274.733 30.066,274.208 30.263,273.750 30.425 C 270.256 31.654,264.333 36.367,264.333 37.918 C 264.333 37.967,264.160 38.286,263.947 38.628 C 262.955 40.227,262.167 43.573,262.167 46.188 C 262.167 47.358,262.484 49.514,262.690 49.742 C 262.769 49.829,262.834 50.016,262.835 50.158 C 262.842 50.949,264.454 53.424,265.777 54.673 C 267.491 56.292,271.003 58.420,272.886 58.982 C 273.178 59.069,273.829 59.303,274.333 59.501 C 274.837 59.700,275.475 59.928,275.750 60.008 C 276.025 60.088,276.662 60.273,277.167 60.420 C 278.158 60.709,283.341 62.062,284.833 62.422 C 287.156 62.981,287.647 63.133,288.341 63.505 C 293.108 66.057,292.963 72.178,288.083 74.417 C 285.751 75.487,279.398 76.131,278.642 75.375 C 278.527 75.260,278.317 75.166,278.175 75.165 C 275.668 75.149,272.976 71.344,272.724 67.458 L 272.618 65.833 266.906 65.833 C 263.764 65.833,261.075 65.879,260.930 65.934 C 260.142 66.237,261.110 72.818,262.268 75.026 C 262.396 75.269,262.500 75.588,262.500 75.734 C 262.500 75.880,262.570 76.000,262.655 76.000 C 262.741 76.000,262.864 76.169,262.929 76.375 C 263.063 76.797,263.567 77.514,264.616 78.775 C 270.498 85.842,289.171 86.377,298.172 79.736 C 302.366 76.642,304.370 72.453,304.385 66.750 C 304.399 61.134,301.601 57.084,296.167 54.858 C 295.662 54.651,295.100 54.420,294.917 54.345 C 293.909 53.931,293.544 53.797,292.610 53.499 C 291.145 53.031,289.013 52.401,287.333 51.938 C 286.829 51.799,286.014 51.569,285.523 51.426 C 285.031 51.283,284.520 51.167,284.387 51.167 C 284.255 51.167,283.794 51.061,283.365 50.932 C 282.935 50.803,282.133 50.569,281.583 50.413 C 278.589 49.561,277.788 49.213,276.774 48.320 C 274.560 46.371,274.091 43.262,275.633 40.767 C 278.660 35.874,288.350 36.109,290.574 41.129 C 290.726 41.471,290.915 41.870,290.994 42.017 C 291.074 42.164,291.192 42.637,291.256 43.068 C 291.321 43.499,291.467 44.166,291.580 44.551 L 291.787 45.250 297.230 45.294 L 302.673 45.338 302.852 44.877 C 303.181 44.028,302.648 40.752,301.833 38.615 C 300.558 35.271,297.363 31.929,294.083 30.509 C 293.625 30.311,293.100 30.079,292.917 29.995 C 291.631 29.402,289.146 28.881,286.616 28.674 C 284.285 28.484,284.249 28.484,281.583 28.685 M174.779 29.776 C 174.717 29.838,174.667 30.613,174.667 31.497 L 174.667 33.105 175.312 33.468 C 176.381 34.069,177.444 35.506,178.131 37.282 L 178.571 38.417 178.624 60.743 C 178.664 78.102,178.721 83.098,178.880 83.199 C 179.322 83.480,190.122 83.357,190.232 83.070 C 190.288 82.925,190.333 77.037,190.333 69.986 C 190.333 62.936,190.390 57.169,190.458 57.172 C 190.527 57.175,190.696 57.269,190.833 57.382 C 191.084 57.587,191.222 57.780,193.419 61.000 C 194.075 61.962,195.025 63.350,195.530 64.083 C 196.034 64.817,196.796 65.924,197.222 66.543 C 197.647 67.163,198.346 68.175,198.775 68.793 C 199.203 69.411,200.090 70.704,200.745 71.667 C 201.400 72.629,202.157 73.727,202.427 74.105 C 202.696 74.484,203.013 74.934,203.130 75.105 C 203.248 75.277,204.142 76.579,205.117 78.000 C 206.092 79.421,207.261 81.125,207.714 81.788 C 208.383 82.765,208.636 83.008,209.061 83.075 C 210.268 83.267,223.333 83.251,223.333 83.057 C 223.333 82.951,222.665 81.939,221.848 80.807 C 221.031 79.676,219.513 77.567,218.473 76.122 C 217.434 74.676,215.608 72.148,214.417 70.504 C 213.225 68.860,211.575 66.573,210.750 65.422 C 208.813 62.718,205.723 58.440,203.920 55.968 C 202.223 53.638,202.226 53.667,203.542 52.053 C 204.115 51.350,205.101 50.132,205.734 49.346 C 206.366 48.560,207.018 47.767,207.181 47.583 C 207.529 47.192,209.896 44.330,210.500 43.569 C 211.693 42.065,213.360 40.034,213.753 39.603 C 213.847 39.500,214.222 39.042,214.587 38.583 C 214.951 38.125,215.662 37.257,216.166 36.654 C 216.671 36.051,217.496 35.045,218.000 34.420 C 218.504 33.794,219.179 32.969,219.500 32.586 C 222.159 29.413,222.733 29.759,214.717 29.706 L 208.016 29.663 207.657 30.040 C 207.460 30.247,206.842 31.017,206.284 31.750 C 205.726 32.483,205.224 33.121,205.169 33.167 C 205.074 33.246,203.487 35.288,200.250 39.496 C 196.589 44.254,195.423 45.756,195.331 45.833 C 195.276 45.879,194.749 46.554,194.160 47.333 C 193.572 48.112,192.998 48.862,192.885 49.000 C 192.773 49.137,192.226 49.831,191.670 50.542 C 191.115 51.252,190.587 51.833,190.498 51.833 C 190.395 51.833,190.320 47.801,190.293 40.792 L 190.250 29.750 182.571 29.707 C 178.348 29.683,174.841 29.714,174.779 29.776 M231.779 29.776 C 231.717 29.838,231.667 30.585,231.667 31.436 L 231.667 32.984 232.385 33.478 C 233.832 34.474,234.680 35.692,235.346 37.730 C 235.656 38.677,235.667 39.462,235.667 60.822 C 235.667 77.797,235.713 82.980,235.867 83.133 C 236.098 83.365,246.933 83.424,247.292 83.196 C 247.458 83.090,247.492 77.622,247.459 56.407 L 247.417 29.750 239.654 29.707 C 235.385 29.683,231.841 29.714,231.779 29.776 M315.375 29.773 C 315.230 29.835,315.167 30.327,315.167 31.402 L 315.167 32.943 315.926 33.489 C 317.677 34.746,318.464 36.095,319.192 39.083 C 319.344 39.706,319.419 45.373,319.489 61.500 L 319.583 83.083 325.333 83.083 L 331.083 83.083 331.171 72.583 C 331.219 66.808,331.276 62.065,331.296 62.042 C 331.449 61.870,339.809 62.030,340.047 62.208 C 340.200 62.323,340.691 63.129,341.138 64.000 C 341.899 65.482,343.038 67.663,344.795 71.000 C 345.206 71.779,346.008 73.317,346.579 74.417 C 347.150 75.517,348.128 77.392,348.752 78.583 C 349.377 79.775,350.115 81.200,350.392 81.750 C 351.150 83.255,350.647 83.155,357.542 83.161 C 364.598 83.167,364.058 83.347,362.976 81.355 C 361.823 79.232,361.397 78.450,360.962 77.667 C 360.733 77.254,360.300 76.467,360.000 75.917 C 359.700 75.367,359.267 74.579,359.038 74.167 C 358.809 73.754,358.360 72.929,358.040 72.333 C 357.720 71.737,357.402 71.175,357.333 71.083 C 357.265 70.992,356.947 70.429,356.627 69.833 C 356.307 69.237,355.857 68.412,355.628 68.000 C 355.399 67.587,354.949 66.762,354.628 66.167 C 354.307 65.571,353.858 64.746,353.629 64.333 C 353.400 63.921,352.968 63.133,352.669 62.583 C 352.371 62.033,352.060 61.512,351.980 61.425 C 351.734 61.159,351.810 60.500,352.087 60.500 C 353.024 60.500,355.765 58.713,357.393 57.040 C 363.941 50.309,362.635 38.048,354.814 32.836 C 353.799 32.159,351.798 31.167,351.450 31.167 C 351.331 31.167,351.162 31.096,351.075 31.010 C 350.897 30.833,350.178 30.642,347.750 30.125 C 346.141 29.782,316.127 29.456,315.375 29.773 M372.279 29.776 C 371.915 30.140,372.170 32.987,372.594 33.284 C 373.638 34.016,374.032 34.422,374.718 35.468 C 376.197 37.724,376.065 35.365,376.123 60.608 C 376.165 79.109,376.212 82.997,376.398 83.151 C 376.556 83.283,378.270 83.325,382.186 83.294 L 387.750 83.250 387.750 56.500 L 387.750 29.750 380.071 29.707 C 375.848 29.683,372.341 29.714,372.279 29.776 M343.000 38.908 C 348.913 39.893,351.638 44.220,349.325 48.951 C 348.841 49.941,347.205 51.667,346.750 51.667 C 346.649 51.667,346.479 51.754,346.372 51.861 C 345.459 52.775,343.146 53.072,336.917 53.078 L 331.250 53.083 331.204 46.250 C 331.178 42.492,331.198 39.248,331.249 39.042 L 331.340 38.667 336.462 38.670 C 340.087 38.672,341.997 38.741,343.000 38.908 M178.707 103.370 L 178.750 113.083 180.787 113.130 L 182.824 113.177 182.927 112.768 C 183.080 112.158,182.953 111.761,182.581 111.694 C 182.399 111.660,182.081 111.478,181.875 111.288 L 181.500 110.942 181.500 103.489 C 181.500 95.315,181.463 95.628,182.500 95.114 C 182.825 94.952,182.917 94.779,182.917 94.328 L 182.917 93.750 180.790 93.703 L 178.664 93.657 178.707 103.370 M201.500 94.332 C 201.500 94.892,201.569 95.034,201.900 95.160 C 202.843 95.519,202.833 95.431,202.833 103.431 C 202.833 111.466,202.809 111.667,201.821 111.667 C 201.552 111.667,201.500 111.787,201.500 112.417 L 201.500 113.167 203.375 113.164 C 204.406 113.163,205.344 113.102,205.460 113.028 C 205.625 112.923,205.660 110.870,205.626 103.323 L 205.583 93.750 203.542 93.703 L 201.500 93.656 201.500 94.332 M214.208 93.777 C 213.885 93.908,213.963 94.581,214.341 94.923 C 215.179 95.682,214.773 95.909,212.417 96.000 L 210.250 96.083 210.250 97.250 L 210.250 98.417 211.167 98.500 C 211.676 98.546,212.056 98.657,212.022 98.750 C 211.988 98.842,211.882 99.104,211.786 99.333 C 209.960 103.715,216.086 107.310,220.127 104.228 C 221.517 103.168,222.140 100.419,221.286 99.115 C 220.942 98.589,221.014 98.536,222.167 98.464 L 222.917 98.417 222.969 97.594 C 223.072 95.967,223.117 96.000,220.780 96.000 C 218.481 96.000,218.333 95.937,218.333 94.956 C 218.333 93.734,218.219 93.665,216.202 93.680 C 215.220 93.687,214.323 93.731,214.208 93.777 M222.934 93.930 C 222.680 94.593,222.828 94.993,223.417 95.239 C 223.737 95.373,224.016 95.506,224.036 95.533 C 224.056 95.561,224.113 98.321,224.161 101.667 L 224.250 107.750 225.833 107.750 L 227.417 107.750 227.500 104.667 L 227.583 101.583 228.583 101.540 C 230.365 101.464,230.333 101.488,230.333 100.197 C 230.333 98.802,230.208 98.667,228.917 98.667 C 227.513 98.667,227.500 98.642,227.500 96.068 C 227.500 93.465,227.710 93.667,225.004 93.667 C 223.363 93.667,223.019 93.710,222.934 93.930 M263.867 93.867 C 263.458 94.276,263.633 94.906,264.249 95.238 L 264.830 95.551 264.874 104.317 L 264.917 113.083 266.583 113.083 L 268.250 113.083 268.296 103.750 C 268.321 98.617,268.301 94.248,268.251 94.042 C 268.145 93.602,264.285 93.448,263.867 93.867 M283.700 93.867 C 283.270 94.296,283.465 94.949,284.125 95.292 C 284.740 95.611,284.750 95.632,284.750 96.600 L 284.750 97.583 282.868 97.631 L 280.986 97.678 281.035 98.964 L 281.083 100.250 282.917 100.333 L 284.750 100.417 284.798 102.240 C 284.824 103.243,284.927 104.162,285.026 104.282 C 285.265 104.569,287.849 104.584,288.133 104.300 C 288.345 104.088,288.437 94.463,288.232 93.930 C 288.102 93.592,284.031 93.535,283.700 93.867 M303.434 93.930 C 303.199 94.545,303.334 94.992,303.833 95.250 C 304.108 95.392,304.350 95.525,304.370 95.546 C 304.390 95.567,304.446 98.321,304.495 101.667 L 304.583 107.750 306.250 107.750 L 307.917 107.750 308.000 104.667 L 308.083 101.583 309.333 101.500 L 310.583 101.417 310.583 100.083 L 310.583 98.750 309.506 98.699 C 307.990 98.628,308.000 98.644,308.000 96.180 C 308.000 94.758,307.935 94.001,307.800 93.867 C 307.469 93.536,303.564 93.593,303.434 93.930 M325.367 93.867 C 325.058 94.175,325.118 94.993,325.458 95.114 C 326.208 95.380,326.333 95.665,326.333 97.109 L 326.333 98.500 324.783 98.500 C 322.927 98.500,322.832 98.569,322.836 99.908 C 322.839 101.302,322.852 101.312,324.672 101.368 L 326.250 101.417 326.333 104.583 L 326.417 107.750 328.083 107.750 L 329.750 107.750 329.796 101.083 C 329.822 97.417,329.802 94.248,329.752 94.042 C 329.645 93.602,325.785 93.448,325.367 93.867 M344.899 93.903 C 344.694 94.437,344.910 95.069,345.332 95.167 C 345.855 95.290,346.199 96.105,345.827 96.341 C 345.117 96.790,343.088 96.523,342.491 95.902 C 338.993 92.263,332.667 94.580,332.667 99.500 C 332.667 104.273,338.344 106.635,342.141 103.442 C 342.842 102.853,342.908 102.833,344.193 102.833 C 346.216 102.833,346.167 102.769,346.167 105.405 C 346.167 107.281,346.208 107.647,346.430 107.732 C 346.769 107.862,348.636 107.859,349.125 107.728 L 349.500 107.628 349.500 100.847 C 349.500 95.796,349.449 94.016,349.300 93.867 C 348.991 93.558,345.019 93.590,344.899 93.903 M374.482 94.145 C 371.509 95.653,370.898 99.670,373.367 101.468 C 374.008 101.934,373.730 102.167,372.533 102.167 C 371.163 102.167,371.000 102.302,371.000 103.440 C 371.000 104.552,371.027 104.566,373.333 104.667 L 375.250 104.750 375.303 105.497 C 375.381 106.586,375.505 106.667,377.104 106.667 L 378.500 106.667 378.500 105.930 C 378.500 104.632,378.434 104.667,380.923 104.667 C 383.517 104.667,383.667 104.595,383.667 103.355 C 383.667 102.265,383.513 102.167,381.810 102.167 C 380.089 102.167,379.948 102.041,380.761 101.228 C 384.514 97.475,379.366 91.668,374.482 94.145 M383.371 93.862 C 382.958 94.275,383.130 94.905,383.747 95.237 C 384.518 95.652,384.522 95.690,384.465 101.417 L 384.417 106.250 382.667 106.333 L 380.917 106.417 380.866 107.119 C 380.764 108.524,380.734 108.513,384.466 108.462 L 387.750 108.417 387.750 101.083 L 387.750 93.750 385.663 93.704 C 384.181 93.671,383.517 93.717,383.371 93.862 M233.829 94.594 C 233.026 96.708,233.329 96.833,239.229 96.833 C 245.247 96.833,245.069 96.742,244.481 99.533 C 244.173 100.992,244.652 100.899,238.151 100.769 C 231.523 100.636,231.955 100.535,232.033 102.194 L 232.083 103.250 235.404 103.295 C 239.228 103.347,239.167 103.325,239.167 104.684 C 239.167 105.871,239.297 105.820,236.083 105.876 L 233.750 105.917 233.700 106.889 C 233.621 108.415,233.311 108.333,239.177 108.333 C 245.178 108.333,244.556 108.041,244.667 110.917 L 244.750 113.083 246.417 113.083 L 248.083 113.083 248.129 109.688 C 248.184 105.503,248.434 105.854,245.358 105.796 L 242.917 105.750 242.917 104.583 L 242.917 103.417 246.500 103.333 L 250.083 103.250 250.134 102.184 C 250.194 100.895,250.097 100.778,248.868 100.668 C 247.926 100.584,247.917 100.579,247.972 100.083 C 248.175 98.233,248.174 94.441,247.970 94.312 C 247.849 94.235,244.654 94.171,240.871 94.169 L 233.992 94.167 233.829 94.594 M273.944 94.278 C 273.639 94.583,273.845 95.346,274.278 95.511 C 275.134 95.836,275.415 97.300,274.848 98.477 C 274.168 99.887,273.845 100.416,273.417 100.824 C 272.888 101.328,271.726 102.000,271.385 102.000 C 270.234 102.000,270.146 102.578,271.146 103.563 L 271.959 104.363 272.938 104.066 C 274.239 103.670,275.607 102.762,276.227 101.882 C 276.823 101.036,276.875 101.024,277.275 101.641 C 278.122 102.946,281.058 104.587,281.810 104.176 C 282.345 103.883,283.377 102.687,283.290 102.460 C 283.241 102.333,282.882 102.134,282.491 102.017 C 281.061 101.588,279.903 100.636,279.351 99.433 C 278.728 98.075,278.667 97.794,278.667 96.315 C 278.667 94.105,278.737 94.167,276.189 94.167 C 275.015 94.167,274.006 94.217,273.944 94.278 M294.772 94.577 C 289.069 96.921,290.798 104.845,297.016 104.865 C 302.250 104.882,304.642 99.069,300.823 95.614 C 299.185 94.131,296.835 93.728,294.772 94.577 M353.278 94.278 C 353.139 94.417,353.131 96.213,353.268 96.570 C 353.357 96.802,353.981 96.833,358.568 96.833 C 362.389 96.833,363.820 96.886,363.967 97.033 C 364.378 97.445,364.122 102.111,363.662 102.571 C 363.545 102.689,361.395 102.778,357.367 102.833 L 351.250 102.917 351.198 103.824 C 351.170 104.324,351.190 104.905,351.243 105.116 L 351.340 105.500 354.811 105.500 C 359.232 105.500,358.813 105.078,358.872 109.593 L 358.917 113.083 360.583 113.083 L 362.250 113.083 362.295 109.513 C 362.324 107.222,362.406 105.863,362.524 105.721 C 362.665 105.551,363.469 105.500,366.017 105.500 L 369.327 105.500 369.423 105.116 C 369.476 104.905,369.497 104.324,369.468 103.824 L 369.417 102.917 368.417 102.833 L 367.417 102.750 367.469 102.167 C 367.671 99.889,367.672 94.440,367.470 94.312 C 367.211 94.147,353.441 94.114,353.278 94.278 M185.444 94.611 C 185.306 94.750,185.298 96.547,185.434 96.903 C 185.520 97.126,185.894 97.167,187.856 97.167 C 190.378 97.167,190.497 97.213,190.173 98.065 C 189.705 99.299,187.323 100.972,185.333 101.467 C 184.906 101.573,184.764 101.690,184.803 101.905 C 184.881 102.343,186.398 103.833,186.765 103.833 C 187.551 103.833,190.219 102.590,191.278 101.730 C 192.077 101.082,192.221 101.054,192.636 101.469 C 192.961 101.794,194.650 102.823,195.333 103.111 C 195.563 103.208,196.034 103.410,196.381 103.560 C 197.383 103.995,197.682 103.914,198.631 102.953 C 199.673 101.898,199.728 101.580,198.895 101.424 C 196.797 101.030,194.000 98.822,194.000 97.558 C 194.000 97.167,194.003 97.167,196.178 97.167 C 198.893 97.167,199.000 97.117,199.000 95.861 C 199.000 95.332,198.910 94.810,198.800 94.700 C 198.583 94.483,185.659 94.397,185.444 94.611 M254.247 94.838 C 254.011 95.220,254.342 95.832,254.914 96.071 C 255.645 96.377,255.743 96.764,255.610 98.814 C 255.397 102.101,254.086 104.355,251.773 105.413 C 250.636 105.933,250.626 106.028,251.602 107.019 C 252.266 107.694,252.431 107.782,252.812 107.673 C 254.193 107.277,255.952 105.944,256.833 104.626 C 257.348 103.856,257.296 103.849,258.000 104.790 C 259.932 107.371,261.940 108.206,263.140 106.926 C 264.032 105.974,264.028 105.956,262.765 105.341 C 261.224 104.590,260.075 103.233,259.447 101.421 C 259.351 101.144,259.230 99.529,259.178 97.833 L 259.083 94.750 256.721 94.704 C 255.156 94.673,254.321 94.719,254.247 94.838 M313.278 94.778 C 313.124 94.931,313.142 96.871,313.300 97.118 C 313.381 97.247,314.001 97.337,315.006 97.368 L 316.583 97.417 316.565 98.362 C 316.524 100.432,314.727 102.947,312.976 103.387 C 312.737 103.447,312.371 103.634,312.162 103.804 L 311.782 104.112 312.824 104.979 C 313.971 105.934,313.952 105.932,315.436 105.214 C 316.335 104.779,317.921 103.344,318.090 102.813 C 318.247 102.318,318.768 102.445,319.135 103.068 C 319.692 104.010,322.288 105.828,323.083 105.831 C 323.175 105.831,323.684 105.447,324.214 104.977 C 325.272 104.038,325.260 103.657,324.165 103.416 C 322.514 103.054,320.715 100.712,320.438 98.564 C 320.294 97.448,320.422 97.359,322.259 97.299 L 323.750 97.250 323.799 95.958 L 323.847 94.667 318.618 94.667 C 315.742 94.667,313.339 94.717,313.278 94.778 M378.007 96.375 C 378.983 97.413,378.974 98.984,377.986 99.930 C 376.218 101.624,374.031 98.394,375.728 96.595 C 376.428 95.853,377.425 95.757,378.007 96.375 M297.709 96.931 C 299.434 97.753,299.616 101.102,297.989 102.063 C 296.273 103.077,294.301 100.959,294.944 98.794 C 295.462 97.049,296.496 96.352,297.709 96.931 M339.278 97.093 C 341.109 98.490,340.355 102.333,338.250 102.333 C 337.116 102.333,336.167 101.057,336.167 99.534 C 336.167 97.314,337.843 95.999,339.278 97.093 M345.804 98.645 C 346.150 98.864,346.252 100.055,345.947 100.308 C 345.394 100.767,343.923 100.484,343.867 99.907 C 343.750 98.710,344.813 98.017,345.804 98.645 M217.293 98.999 C 218.840 99.942,218.792 102.283,217.212 102.943 C 215.006 103.865,213.794 100.267,215.882 98.994 C 216.545 98.590,216.622 98.590,217.293 98.999 M188.333 104.833 L 183.750 104.917 183.700 105.973 C 183.626 107.539,183.539 107.500,187.083 107.500 C 190.781 107.500,190.478 107.236,190.537 110.512 L 190.583 113.083 192.083 113.083 L 193.583 113.083 193.667 110.333 L 193.750 107.583 197.250 107.500 L 200.750 107.417 200.799 106.125 L 200.847 104.833 199.882 104.829 C 199.351 104.826,197.567 104.808,195.917 104.787 C 194.267 104.767,190.854 104.787,188.333 104.833 M275.167 105.118 C 274.780 105.271,274.672 105.524,274.669 106.286 C 274.665 107.327,274.698 107.333,280.084 107.333 L 284.857 107.333 284.803 107.708 L 284.750 108.083 279.931 108.128 C 274.241 108.180,274.667 108.014,274.667 110.181 C 274.667 113.373,274.205 113.189,282.083 113.130 L 288.250 113.083 288.250 112.167 L 288.250 111.250 283.500 111.167 C 278.817 111.085,278.333 111.031,278.333 110.591 C 278.333 110.203,278.765 110.167,283.424 110.167 C 287.766 110.167,287.997 110.151,288.161 109.844 C 288.377 109.441,288.385 105.672,288.170 105.333 C 288.008 105.077,275.782 104.874,275.167 105.118 M214.000 106.496 C 213.616 106.739,213.538 111.601,213.907 112.314 C 214.350 113.171,214.373 113.174,221.118 113.127 L 227.417 113.083 227.417 111.917 L 227.417 110.750 222.514 110.706 C 216.702 110.653,217.167 110.844,217.167 108.513 C 217.167 107.351,217.097 106.664,216.967 106.533 C 216.727 106.294,214.368 106.264,214.000 106.496 M294.158 106.682 C 294.035 106.912,293.991 107.967,294.028 109.780 C 294.104 113.555,293.290 113.181,301.313 113.127 L 307.750 113.083 307.750 111.917 L 307.750 110.750 302.667 110.667 L 297.583 110.583 297.538 108.667 C 297.483 106.350,297.470 106.333,295.641 106.333 C 294.497 106.333,294.323 106.374,294.158 106.682 M315.958 106.513 C 315.699 106.664,315.667 106.989,315.667 109.407 L 315.667 112.131 316.152 112.651 L 316.637 113.171 323.194 113.127 L 329.750 113.083 329.750 111.917 L 329.750 110.750 324.583 110.667 L 319.417 110.583 319.333 108.619 C 319.270 107.121,319.191 106.617,319.000 106.496 C 318.666 106.286,316.327 106.299,315.958 106.513 M335.681 106.566 C 335.534 106.743,335.492 107.592,335.531 109.637 C 335.604 113.554,334.783 113.167,342.917 113.121 L 349.417 113.083 349.466 111.958 C 349.526 110.586,350.303 110.777,344.250 110.673 L 339.083 110.583 339.000 108.500 L 338.917 106.417 337.400 106.369 C 336.227 106.332,335.838 106.377,335.681 106.566 M373.559 107.588 C 373.334 108.174,373.588 112.104,373.879 112.549 C 374.284 113.167,374.516 113.185,381.500 113.131 L 387.750 113.083 387.750 111.917 L 387.750 110.750 382.537 110.706 L 377.323 110.662 377.162 110.237 C 377.073 110.003,377.000 109.254,377.000 108.572 L 377.000 107.333 375.328 107.333 C 373.983 107.333,373.637 107.383,373.559 107.588 " stroke="none" fill="#353535" fill-rule="evenodd"></path><path id="path1" d="M60.094 11.650 C 60.030 11.753,59.953 86.758,59.999 103.125 C 60.001 103.527,107.289 103.418,108.848 103.012 C 117.496 100.761,121.427 93.726,117.556 87.430 C 117.214 86.873,116.852 86.334,116.754 86.234 C 116.655 86.133,116.292 85.681,115.948 85.229 C 115.248 84.311,112.732 81.816,111.347 80.666 C 110.851 80.254,110.364 79.836,110.264 79.738 C 109.913 79.392,106.064 76.565,104.832 75.747 C 104.145 75.292,103.546 74.880,103.500 74.831 C 103.454 74.782,102.897 74.407,102.261 73.996 C 101.183 73.300,95.625 69.600,93.750 68.330 C 83.893 61.655,77.692 54.878,74.844 47.667 C 74.645 47.163,74.422 46.600,74.348 46.417 C 74.221 46.102,73.990 45.336,73.444 43.417 C 72.539 40.236,72.236 33.165,72.894 30.583 C 74.395 24.697,77.541 19.887,82.673 15.634 C 84.006 14.529,84.709 14.036,87.085 12.541 C 87.267 12.426,87.585 12.260,87.792 12.170 C 87.998 12.081,88.167 11.894,88.167 11.754 C 88.167 11.461,60.275 11.357,60.094 11.650 " stroke="none" fill="#ff1001" fill-rule="evenodd"></path><path id="path2" d="M8.749 11.875 C 8.700 12.081,8.679 32.725,8.704 57.750 L 8.750 103.250 22.417 103.250 L 36.083 103.250 36.129 57.750 C 36.154 32.725,36.134 12.081,36.084 11.875 L 35.994 11.500 22.417 11.500 L 8.840 11.500 8.749 11.875 M105.750 28.253 C 99.705 29.018,96.451 32.028,96.212 37.075 C 95.968 42.223,100.090 47.141,110.333 53.924 C 111.846 54.926,113.121 55.784,113.167 55.832 C 113.212 55.880,115.013 57.103,117.167 58.550 C 122.799 62.334,123.296 62.686,128.250 66.399 C 130.083 67.773,131.882 69.164,132.248 69.490 C 136.814 73.565,140.164 77.754,142.118 81.833 C 143.648 85.027,143.864 85.645,144.574 88.854 C 145.464 92.874,144.668 101.650,143.152 104.539 C 143.068 104.699,143.000 104.928,143.000 105.049 C 143.000 106.363,139.201 111.953,136.975 113.917 C 135.253 115.435,134.606 115.333,145.967 115.333 C 153.496 115.333,155.982 115.284,156.133 115.133 C 156.425 114.842,156.425 28.491,156.133 28.200 C 155.837 27.904,108.113 27.954,105.750 28.253 M281.583 28.685 C 280.575 28.760,279.337 28.908,278.833 29.013 C 277.249 29.342,275.263 29.835,274.917 29.986 C 274.733 30.066,274.208 30.263,273.750 30.425 C 270.256 31.654,264.333 36.367,264.333 37.918 C 264.333 37.967,264.160 38.286,263.947 38.628 C 262.955 40.227,262.167 43.573,262.167 46.188 C 262.167 47.358,262.484 49.514,262.690 49.742 C 262.769 49.829,262.834 50.016,262.835 50.158 C 262.842 50.949,264.454 53.424,265.777 54.673 C 267.491 56.292,271.003 58.420,272.886 58.982 C 273.178 59.069,273.829 59.303,274.333 59.501 C 274.837 59.700,275.475 59.928,275.750 60.008 C 276.025 60.088,276.662 60.273,277.167 60.420 C 278.158 60.709,283.341 62.062,284.833 62.422 C 287.156 62.981,287.647 63.133,288.341 63.505 C 293.108 66.057,292.963 72.178,288.083 74.417 C 285.751 75.487,279.398 76.131,278.642 75.375 C 278.527 75.260,278.317 75.166,278.175 75.165 C 275.668 75.149,272.976 71.344,272.724 67.458 L 272.618 65.833 266.906 65.833 C 263.764 65.833,261.075 65.879,260.930 65.934 C 260.142 66.237,261.110 72.818,262.268 75.026 C 262.396 75.269,262.500 75.588,262.500 75.734 C 262.500 75.880,262.570 76.000,262.655 76.000 C 262.741 76.000,262.864 76.169,262.929 76.375 C 263.063 76.797,263.567 77.514,264.616 78.775 C 270.498 85.842,289.171 86.377,298.172 79.736 C 302.366 76.642,304.370 72.453,304.385 66.750 C 304.399 61.134,301.601 57.084,296.167 54.858 C 295.662 54.651,295.100 54.420,294.917 54.345 C 293.909 53.931,293.544 53.797,292.610 53.499 C 291.145 53.031,289.013 52.401,287.333 51.938 C 286.829 51.799,286.014 51.569,285.523 51.426 C 285.031 51.283,284.520 51.167,284.387 51.167 C 284.255 51.167,283.794 51.061,283.365 50.932 C 282.935 50.803,282.133 50.569,281.583 50.413 C 278.589 49.561,277.788 49.213,276.774 48.320 C 274.560 46.371,274.091 43.262,275.633 40.767 C 278.660 35.874,288.350 36.109,290.574 41.129 C 290.726 41.471,290.915 41.870,290.994 42.017 C 291.074 42.164,291.192 42.637,291.256 43.068 C 291.321 43.499,291.467 44.166,291.580 44.551 L 291.787 45.250 297.230 45.294 L 302.673 45.338 302.852 44.877 C 303.181 44.028,302.648 40.752,301.833 38.615 C 300.558 35.271,297.363 31.929,294.083 30.509 C 293.625 30.311,293.100 30.079,292.917 29.995 C 291.631 29.402,289.146 28.881,286.616 28.674 C 284.285 28.484,284.249 28.484,281.583 28.685 M174.779 29.776 C 174.717 29.838,174.667 30.613,174.667 31.497 L 174.667 33.105 175.312 33.468 C 176.381 34.069,177.444 35.506,178.131 37.282 L 178.571 38.417 178.624 60.743 C 178.664 78.102,178.721 83.098,178.880 83.199 C 179.322 83.480,190.122 83.357,190.232 83.070 C 190.288 82.925,190.333 77.037,190.333 69.986 C 190.333 62.936,190.390 57.169,190.458 57.172 C 190.527 57.175,190.696 57.269,190.833 57.382 C 191.084 57.587,191.222 57.780,193.419 61.000 C 194.075 61.962,195.025 63.350,195.530 64.083 C 196.034 64.817,196.796 65.924,197.222 66.543 C 197.647 67.163,198.346 68.175,198.775 68.793 C 199.203 69.411,200.090 70.704,200.745 71.667 C 201.400 72.629,202.157 73.727,202.427 74.105 C 202.696 74.484,203.013 74.934,203.130 75.105 C 203.248 75.277,204.142 76.579,205.117 78.000 C 206.092 79.421,207.261 81.125,207.714 81.788 C 208.383 82.765,208.636 83.008,209.061 83.075 C 210.268 83.267,223.333 83.251,223.333 83.057 C 223.333 82.951,222.665 81.939,221.848 80.807 C 221.031 79.676,219.513 77.567,218.473 76.122 C 217.434 74.676,215.608 72.148,214.417 70.504 C 213.225 68.860,211.575 66.573,210.750 65.422 C 208.813 62.718,205.723 58.440,203.920 55.968 C 202.223 53.638,202.226 53.667,203.542 52.053 C 204.115 51.350,205.101 50.132,205.734 49.346 C 206.366 48.560,207.018 47.767,207.181 47.583 C 207.529 47.192,209.896 44.330,210.500 43.569 C 211.693 42.065,213.360 40.034,213.753 39.603 C 213.847 39.500,214.222 39.042,214.587 38.583 C 214.951 38.125,215.662 37.257,216.166 36.654 C 216.671 36.051,217.496 35.045,218.000 34.420 C 218.504 33.794,219.179 32.969,219.500 32.586 C 222.159 29.413,222.733 29.759,214.717 29.706 L 208.016 29.663 207.657 30.040 C 207.460 30.247,206.842 31.017,206.284 31.750 C 205.726 32.483,205.224 33.121,205.169 33.167 C 205.074 33.246,203.487 35.288,200.250 39.496 C 196.589 44.254,195.423 45.756,195.331 45.833 C 195.276 45.879,194.749 46.554,194.160 47.333 C 193.572 48.112,192.998 48.862,192.885 49.000 C 192.773 49.137,192.226 49.831,191.670 50.542 C 191.115 51.252,190.587 51.833,190.498 51.833 C 190.395 51.833,190.320 47.801,190.293 40.792 L 190.250 29.750 182.571 29.707 C 178.348 29.683,174.841 29.714,174.779 29.776 M231.779 29.776 C 231.717 29.838,231.667 30.585,231.667 31.436 L 231.667 32.984 232.385 33.478 C 233.832 34.474,234.680 35.692,235.346 37.730 C 235.656 38.677,235.667 39.462,235.667 60.822 C 235.667 77.797,235.713 82.980,235.867 83.133 C 236.098 83.365,246.933 83.424,247.292 83.196 C 247.458 83.090,247.492 77.622,247.459 56.407 L 247.417 29.750 239.654 29.707 C 235.385 29.683,231.841 29.714,231.779 29.776 M315.375 29.773 C 315.230 29.835,315.167 30.327,315.167 31.402 L 315.167 32.943 315.926 33.489 C 317.677 34.746,318.464 36.095,319.192 39.083 C 319.344 39.706,319.419 45.373,319.489 61.500 L 319.583 83.083 325.333 83.083 L 331.083 83.083 331.171 72.583 C 331.219 66.808,331.276 62.065,331.296 62.042 C 331.449 61.870,339.809 62.030,340.047 62.208 C 340.200 62.323,340.691 63.129,341.138 64.000 C 341.899 65.482,343.038 67.663,344.795 71.000 C 345.206 71.779,346.008 73.317,346.579 74.417 C 347.150 75.517,348.128 77.392,348.752 78.583 C 349.377 79.775,350.115 81.200,350.392 81.750 C 351.150 83.255,350.647 83.155,357.542 83.161 C 364.598 83.167,364.058 83.347,362.976 81.355 C 361.823 79.232,361.397 78.450,360.962 77.667 C 360.733 77.254,360.300 76.467,360.000 75.917 C 359.700 75.367,359.267 74.579,359.038 74.167 C 358.809 73.754,358.360 72.929,358.040 72.333 C 357.720 71.737,357.402 71.175,357.333 71.083 C 357.265 70.992,356.947 70.429,356.627 69.833 C 356.307 69.237,355.857 68.412,355.628 68.000 C 355.399 67.587,354.949 66.762,354.628 66.167 C 354.307 65.571,353.858 64.746,353.629 64.333 C 353.400 63.921,352.968 63.133,352.669 62.583 C 352.371 62.033,352.060 61.512,351.980 61.425 C 351.734 61.159,351.810 60.500,352.087 60.500 C 353.024 60.500,355.765 58.713,357.393 57.040 C 363.941 50.309,362.635 38.048,354.814 32.836 C 353.799 32.159,351.798 31.167,351.450 31.167 C 351.331 31.167,351.162 31.096,351.075 31.010 C 350.897 30.833,350.178 30.642,347.750 30.125 C 346.141 29.782,316.127 29.456,315.375 29.773 M372.279 29.776 C 371.915 30.140,372.170 32.987,372.594 33.284 C 373.638 34.016,374.032 34.422,374.718 35.468 C 376.197 37.724,376.065 35.365,376.123 60.608 C 376.165 79.109,376.212 82.997,376.398 83.151 C 376.556 83.283,378.270 83.325,382.186 83.294 L 387.750 83.250 387.750 56.500 L 387.750 29.750 380.071 29.707 C 375.848 29.683,372.341 29.714,372.279 29.776 M343.000 38.908 C 348.913 39.893,351.638 44.220,349.325 48.951 C 348.841 49.941,347.205 51.667,346.750 51.667 C 346.649 51.667,346.479 51.754,346.372 51.861 C 345.459 52.775,343.146 53.072,336.917 53.078 L 331.250 53.083 331.204 46.250 C 331.178 42.492,331.198 39.248,331.249 39.042 L 331.340 38.667 336.462 38.670 C 340.087 38.672,341.997 38.741,343.000 38.908 M178.707 103.370 L 178.750 113.083 180.787 113.130 L 182.824 113.177 182.927 112.768 C 183.080 112.158,182.953 111.761,182.581 111.694 C 182.399 111.660,182.081 111.478,181.875 111.288 L 181.500 110.942 181.500 103.489 C 181.500 95.315,181.463 95.628,182.500 95.114 C 182.825 94.952,182.917 94.779,182.917 94.328 L 182.917 93.750 180.790 93.703 L 178.664 93.657 178.707 103.370 M201.500 94.332 C 201.500 94.892,201.569 95.034,201.900 95.160 C 202.843 95.519,202.833 95.431,202.833 103.431 C 202.833 111.466,202.809 111.667,201.821 111.667 C 201.552 111.667,201.500 111.787,201.500 112.417 L 201.500 113.167 203.375 113.164 C 204.406 113.163,205.344 113.102,205.460 113.028 C 205.625 112.923,205.660 110.870,205.626 103.323 L 205.583 93.750 203.542 93.703 L 201.500 93.656 201.500 94.332 M214.208 93.777 C 213.885 93.908,213.963 94.581,214.341 94.923 C 215.179 95.682,214.773 95.909,212.417 96.000 L 210.250 96.083 210.250 97.250 L 210.250 98.417 211.167 98.500 C 211.676 98.546,212.056 98.657,212.022 98.750 C 211.988 98.842,211.882 99.104,211.786 99.333 C 209.960 103.715,216.086 107.310,220.127 104.228 C 221.517 103.168,222.140 100.419,221.286 99.115 C 220.942 98.589,221.014 98.536,222.167 98.464 L 222.917 98.417 222.969 97.594 C 223.072 95.967,223.117 96.000,220.780 96.000 C 218.481 96.000,218.333 95.937,218.333 94.956 C 218.333 93.734,218.219 93.665,216.202 93.680 C 215.220 93.687,214.323 93.731,214.208 93.777 M222.934 93.930 C 222.680 94.593,222.828 94.993,223.417 95.239 C 223.737 95.373,224.016 95.506,224.036 95.533 C 224.056 95.561,224.113 98.321,224.161 101.667 L 224.250 107.750 225.833 107.750 L 227.417 107.750 227.500 104.667 L 227.583 101.583 228.583 101.540 C 230.365 101.464,230.333 101.488,230.333 100.197 C 230.333 98.802,230.208 98.667,228.917 98.667 C 227.513 98.667,227.500 98.642,227.500 96.068 C 227.500 93.465,227.710 93.667,225.004 93.667 C 223.363 93.667,223.019 93.710,222.934 93.930 M263.867 93.867 C 263.458 94.276,263.633 94.906,264.249 95.238 L 264.830 95.551 264.874 104.317 L 264.917 113.083 266.583 113.083 L 268.250 113.083 268.296 103.750 C 268.321 98.617,268.301 94.248,268.251 94.042 C 268.145 93.602,264.285 93.448,263.867 93.867 M283.700 93.867 C 283.270 94.296,283.465 94.949,284.125 95.292 C 284.740 95.611,284.750 95.632,284.750 96.600 L 284.750 97.583 282.868 97.631 L 280.986 97.678 281.035 98.964 L 281.083 100.250 282.917 100.333 L 284.750 100.417 284.798 102.240 C 284.824 103.243,284.927 104.162,285.026 104.282 C 285.265 104.569,287.849 104.584,288.133 104.300 C 288.345 104.088,288.437 94.463,288.232 93.930 C 288.102 93.592,284.031 93.535,283.700 93.867 M303.434 93.930 C 303.199 94.545,303.334 94.992,303.833 95.250 C 304.108 95.392,304.350 95.525,304.370 95.546 C 304.390 95.567,304.446 98.321,304.495 101.667 L 304.583 107.750 306.250 107.750 L 307.917 107.750 308.000 104.667 L 308.083 101.583 309.333 101.500 L 310.583 101.417 310.583 100.083 L 310.583 98.750 309.506 98.699 C 307.990 98.628,308.000 98.644,308.000 96.180 C 308.000 94.758,307.935 94.001,307.800 93.867 C 307.469 93.536,303.564 93.593,303.434 93.930 M325.367 93.867 C 325.058 94.175,325.118 94.993,325.458 95.114 C 326.208 95.380,326.333 95.665,326.333 97.109 L 326.333 98.500 324.783 98.500 C 322.927 98.500,322.832 98.569,322.836 99.908 C 322.839 101.302,322.852 101.312,324.672 101.368 L 326.250 101.417 326.333 104.583 L 326.417 107.750 328.083 107.750 L 329.750 107.750 329.796 101.083 C 329.822 97.417,329.802 94.248,329.752 94.042 C 329.645 93.602,325.785 93.448,325.367 93.867 M344.899 93.903 C 344.694 94.437,344.910 95.069,345.332 95.167 C 345.855 95.290,346.199 96.105,345.827 96.341 C 345.117 96.790,343.088 96.523,342.491 95.902 C 338.993 92.263,332.667 94.580,332.667 99.500 C 332.667 104.273,338.344 106.635,342.141 103.442 C 342.842 102.853,342.908 102.833,344.193 102.833 C 346.216 102.833,346.167 102.769,346.167 105.405 C 346.167 107.281,346.208 107.647,346.430 107.732 C 346.769 107.862,348.636 107.859,349.125 107.728 L 349.500 107.628 349.500 100.847 C 349.500 95.796,349.449 94.016,349.300 93.867 C 348.991 93.558,345.019 93.590,344.899 93.903 M374.482 94.145 C 371.509 95.653,370.898 99.670,373.367 101.468 C 374.008 101.934,373.730 102.167,372.533 102.167 C 371.163 102.167,371.000 102.302,371.000 103.440 C 371.000 104.552,371.027 104.566,373.333 104.667 L 375.250 104.750 375.303 105.497 C 375.381 106.586,375.505 106.667,377.104 106.667 L 378.500 106.667 378.500 105.930 C 378.500 104.632,378.434 104.667,380.923 104.667 C 383.517 104.667,383.667 104.595,383.667 103.355 C 383.667 102.265,383.513 102.167,381.810 102.167 C 380.089 102.167,379.948 102.041,380.761 101.228 C 384.514 97.475,379.366 91.668,374.482 94.145 M383.371 93.862 C 382.958 94.275,383.130 94.905,383.747 95.237 C 384.518 95.652,384.522 95.690,384.465 101.417 L 384.417 106.250 382.667 106.333 L 380.917 106.417 380.866 107.119 C 380.764 108.524,380.734 108.513,384.466 108.462 L 387.750 108.417 387.750 101.083 L 387.750 93.750 385.663 93.704 C 384.181 93.671,383.517 93.717,383.371 93.862 M233.829 94.594 C 233.026 96.708,233.329 96.833,239.229 96.833 C 245.247 96.833,245.069 96.742,244.481 99.533 C 244.173 100.992,244.652 100.899,238.151 100.769 C 231.523 100.636,231.955 100.535,232.033 102.194 L 232.083 103.250 235.404 103.295 C 239.228 103.347,239.167 103.325,239.167 104.684 C 239.167 105.871,239.297 105.820,236.083 105.876 L 233.750 105.917 233.700 106.889 C 233.621 108.415,233.311 108.333,239.177 108.333 C 245.178 108.333,244.556 108.041,244.667 110.917 L 244.750 113.083 246.417 113.083 L 248.083 113.083 248.129 109.688 C 248.184 105.503,248.434 105.854,245.358 105.796 L 242.917 105.750 242.917 104.583 L 242.917 103.417 246.500 103.333 L 250.083 103.250 250.134 102.184 C 250.194 100.895,250.097 100.778,248.868 100.668 C 247.926 100.584,247.917 100.579,247.972 100.083 C 248.175 98.233,248.174 94.441,247.970 94.312 C 247.849 94.235,244.654 94.171,240.871 94.169 L 233.992 94.167 233.829 94.594 M273.944 94.278 C 273.639 94.583,273.845 95.346,274.278 95.511 C 275.134 95.836,275.415 97.300,274.848 98.477 C 274.168 99.887,273.845 100.416,273.417 100.824 C 272.888 101.328,271.726 102.000,271.385 102.000 C 270.234 102.000,270.146 102.578,271.146 103.563 L 271.959 104.363 272.938 104.066 C 274.239 103.670,275.607 102.762,276.227 101.882 C 276.823 101.036,276.875 101.024,277.275 101.641 C 278.122 102.946,281.058 104.587,281.810 104.176 C 282.345 103.883,283.377 102.687,283.290 102.460 C 283.241 102.333,282.882 102.134,282.491 102.017 C 281.061 101.588,279.903 100.636,279.351 99.433 C 278.728 98.075,278.667 97.794,278.667 96.315 C 278.667 94.105,278.737 94.167,276.189 94.167 C 275.015 94.167,274.006 94.217,273.944 94.278 M294.772 94.577 C 289.069 96.921,290.798 104.845,297.016 104.865 C 302.250 104.882,304.642 99.069,300.823 95.614 C 299.185 94.131,296.835 93.728,294.772 94.577 M353.278 94.278 C 353.139 94.417,353.131 96.213,353.268 96.570 C 353.357 96.802,353.981 96.833,358.568 96.833 C 362.389 96.833,363.820 96.886,363.967 97.033 C 364.378 97.445,364.122 102.111,363.662 102.571 C 363.545 102.689,361.395 102.778,357.367 102.833 L 351.250 102.917 351.198 103.824 C 351.170 104.324,351.190 104.905,351.243 105.116 L 351.340 105.500 354.811 105.500 C 359.232 105.500,358.813 105.078,358.872 109.593 L 358.917 113.083 360.583 113.083 L 362.250 113.083 362.295 109.513 C 362.324 107.222,362.406 105.863,362.524 105.721 C 362.665 105.551,363.469 105.500,366.017 105.500 L 369.327 105.500 369.423 105.116 C 369.476 104.905,369.497 104.324,369.468 103.824 L 369.417 102.917 368.417 102.833 L 367.417 102.750 367.469 102.167 C 367.671 99.889,367.672 94.440,367.470 94.312 C 367.211 94.147,353.441 94.114,353.278 94.278 M185.444 94.611 C 185.306 94.750,185.298 96.547,185.434 96.903 C 185.520 97.126,185.894 97.167,187.856 97.167 C 190.378 97.167,190.497 97.213,190.173 98.065 C 189.705 99.299,187.323 100.972,185.333 101.467 C 184.906 101.573,184.764 101.690,184.803 101.905 C 184.881 102.343,186.398 103.833,186.765 103.833 C 187.551 103.833,190.219 102.590,191.278 101.730 C 192.077 101.082,192.221 101.054,192.636 101.469 C 192.961 101.794,194.650 102.823,195.333 103.111 C 195.563 103.208,196.034 103.410,196.381 103.560 C 197.383 103.995,197.682 103.914,198.631 102.953 C 199.673 101.898,199.728 101.580,198.895 101.424 C 196.797 101.030,194.000 98.822,194.000 97.558 C 194.000 97.167,194.003 97.167,196.178 97.167 C 198.893 97.167,199.000 97.117,199.000 95.861 C 199.000 95.332,198.910 94.810,198.800 94.700 C 198.583 94.483,185.659 94.397,185.444 94.611 M254.247 94.838 C 254.011 95.220,254.342 95.832,254.914 96.071 C 255.645 96.377,255.743 96.764,255.610 98.814 C 255.397 102.101,254.086 104.355,251.773 105.413 C 250.636 105.933,250.626 106.028,251.602 107.019 C 252.266 107.694,252.431 107.782,252.812 107.673 C 254.193 107.277,255.952 105.944,256.833 104.626 C 257.348 103.856,257.296 103.849,258.000 104.790 C 259.932 107.371,261.940 108.206,263.140 106.926 C 264.032 105.974,264.028 105.956,262.765 105.341 C 261.224 104.590,260.075 103.233,259.447 101.421 C 259.351 101.144,259.230 99.529,259.178 97.833 L 259.083 94.750 256.721 94.704 C 255.156 94.673,254.321 94.719,254.247 94.838 M313.278 94.778 C 313.124 94.931,313.142 96.871,313.300 97.118 C 313.381 97.247,314.001 97.337,315.006 97.368 L 316.583 97.417 316.565 98.362 C 316.524 100.432,314.727 102.947,312.976 103.387 C 312.737 103.447,312.371 103.634,312.162 103.804 L 311.782 104.112 312.824 104.979 C 313.971 105.934,313.952 105.932,315.436 105.214 C 316.335 104.779,317.921 103.344,318.090 102.813 C 318.247 102.318,318.768 102.445,319.135 103.068 C 319.692 104.010,322.288 105.828,323.083 105.831 C 323.175 105.831,323.684 105.447,324.214 104.977 C 325.272 104.038,325.260 103.657,324.165 103.416 C 322.514 103.054,320.715 100.712,320.438 98.564 C 320.294 97.448,320.422 97.359,322.259 97.299 L 323.750 97.250 323.799 95.958 L 323.847 94.667 318.618 94.667 C 315.742 94.667,313.339 94.717,313.278 94.778 M378.007 96.375 C 378.983 97.413,378.974 98.984,377.986 99.930 C 376.218 101.624,374.031 98.394,375.728 96.595 C 376.428 95.853,377.425 95.757,378.007 96.375 M297.709 96.931 C 299.434 97.753,299.616 101.102,297.989 102.063 C 296.273 103.077,294.301 100.959,294.944 98.794 C 295.462 97.049,296.496 96.352,297.709 96.931 M339.278 97.093 C 341.109 98.490,340.355 102.333,338.250 102.333 C 337.116 102.333,336.167 101.057,336.167 99.534 C 336.167 97.314,337.843 95.999,339.278 97.093 M345.804 98.645 C 346.150 98.864,346.252 100.055,345.947 100.308 C 345.394 100.767,343.923 100.484,343.867 99.907 C 343.750 98.710,344.813 98.017,345.804 98.645 M217.293 98.999 C 218.840 99.942,218.792 102.283,217.212 102.943 C 215.006 103.865,213.794 100.267,215.882 98.994 C 216.545 98.590,216.622 98.590,217.293 98.999 M188.333 104.833 L 183.750 104.917 183.700 105.973 C 183.626 107.539,183.539 107.500,187.083 107.500 C 190.781 107.500,190.478 107.236,190.537 110.512 L 190.583 113.083 192.083 113.083 L 193.583 113.083 193.667 110.333 L 193.750 107.583 197.250 107.500 L 200.750 107.417 200.799 106.125 L 200.847 104.833 199.882 104.829 C 199.351 104.826,197.567 104.808,195.917 104.787 C 194.267 104.767,190.854 104.787,188.333 104.833 M275.167 105.118 C 274.780 105.271,274.672 105.524,274.669 106.286 C 274.665 107.327,274.698 107.333,280.084 107.333 L 284.857 107.333 284.803 107.708 L 284.750 108.083 279.931 108.128 C 274.241 108.180,274.667 108.014,274.667 110.181 C 274.667 113.373,274.205 113.189,282.083 113.130 L 288.250 113.083 288.250 112.167 L 288.250 111.250 283.500 111.167 C 278.817 111.085,278.333 111.031,278.333 110.591 C 278.333 110.203,278.765 110.167,283.424 110.167 C 287.766 110.167,287.997 110.151,288.161 109.844 C 288.377 109.441,288.385 105.672,288.170 105.333 C 288.008 105.077,275.782 104.874,275.167 105.118 M214.000 106.496 C 213.616 106.739,213.538 111.601,213.907 112.314 C 214.350 113.171,214.373 113.174,221.118 113.127 L 227.417 113.083 227.417 111.917 L 227.417 110.750 222.514 110.706 C 216.702 110.653,217.167 110.844,217.167 108.513 C 217.167 107.351,217.097 106.664,216.967 106.533 C 216.727 106.294,214.368 106.264,214.000 106.496 M294.158 106.682 C 294.035 106.912,293.991 107.967,294.028 109.780 C 294.104 113.555,293.290 113.181,301.313 113.127 L 307.750 113.083 307.750 111.917 L 307.750 110.750 302.667 110.667 L 297.583 110.583 297.538 108.667 C 297.483 106.350,297.470 106.333,295.641 106.333 C 294.497 106.333,294.323 106.374,294.158 106.682 M315.958 106.513 C 315.699 106.664,315.667 106.989,315.667 109.407 L 315.667 112.131 316.152 112.651 L 316.637 113.171 323.194 113.127 L 329.750 113.083 329.750 111.917 L 329.750 110.750 324.583 110.667 L 319.417 110.583 319.333 108.619 C 319.270 107.121,319.191 106.617,319.000 106.496 C 318.666 106.286,316.327 106.299,315.958 106.513 M335.681 106.566 C 335.534 106.743,335.492 107.592,335.531 109.637 C 335.604 113.554,334.783 113.167,342.917 113.121 L 349.417 113.083 349.466 111.958 C 349.526 110.586,350.303 110.777,344.250 110.673 L 339.083 110.583 339.000 108.500 L 338.917 106.417 337.400 106.369 C 336.227 106.332,335.838 106.377,335.681 106.566 M373.559 107.588 C 373.334 108.174,373.588 112.104,373.879 112.549 C 374.284 113.167,374.516 113.185,381.500 113.131 L 387.750 113.083 387.750 111.917 L 387.750 110.750 382.537 110.706 L 377.323 110.662 377.162 110.237 C 377.073 110.003,377.000 109.254,377.000 108.572 L 377.000 107.333 375.328 107.333 C 373.983 107.333,373.637 107.383,373.559 107.588 " stroke="none" fill="#353535" fill-rule="evenodd"></path><path id="path3" d="M8.749 11.875 C 8.700 12.081,8.679 32.725,8.704 57.750 L 8.750 103.250 22.417 103.250 L 36.083 103.250 36.129 57.750 C 36.154 32.725,36.134 12.081,36.084 11.875 L 35.994 11.500 22.417 11.500 L 8.840 11.500 8.749 11.875 M105.750 28.253 C 99.705 29.018,96.451 32.028,96.212 37.075 C 95.968 42.223,100.090 47.141,110.333 53.924 C 111.846 54.926,113.121 55.784,113.167 55.832 C 113.212 55.880,115.013 57.103,117.167 58.550 C 122.799 62.334,123.296 62.686,128.250 66.399 C 130.083 67.773,131.882 69.164,132.248 69.490 C 136.814 73.565,140.164 77.754,142.118 81.833 C 143.648 85.027,143.864 85.645,144.574 88.854 C 145.464 92.874,144.668 101.650,143.152 104.539 C 143.068 104.699,143.000 104.928,143.000 105.049 C 143.000 106.363,139.201 111.953,136.975 113.917 C 135.253 115.435,134.606 115.333,145.967 115.333 C 153.496 115.333,155.982 115.284,156.133 115.133 C 156.425 114.842,156.425 28.491,156.133 28.200 C 155.837 27.904,108.113 27.954,105.750 28.253 M281.583 28.685 C 280.575 28.760,279.337 28.908,278.833 29.013 C 277.249 29.342,275.263 29.835,274.917 29.986 C 274.733 30.066,274.208 30.263,273.750 30.425 C 270.256 31.654,264.333 36.367,264.333 37.918 C 264.333 37.967,264.160 38.286,263.947 38.628 C 262.955 40.227,262.167 43.573,262.167 46.188 C 262.167 47.358,262.484 49.514,262.690 49.742 C 262.769 49.829,262.834 50.016,262.835 50.158 C 262.842 50.949,264.454 53.424,265.777 54.673 C 267.491 56.292,271.003 58.420,272.886 58.982 C 273.178 59.069,273.829 59.303,274.333 59.501 C 274.837 59.700,275.475 59.928,275.750 60.008 C 276.025 60.088,276.662 60.273,277.167 60.420 C 278.158 60.709,283.341 62.062,284.833 62.422 C 287.156 62.981,287.647 63.133,288.341 63.505 C 293.108 66.057,292.963 72.178,288.083 74.417 C 285.751 75.487,279.398 76.131,278.642 75.375 C 278.527 75.260,278.317 75.166,278.175 75.165 C 275.668 75.149,272.976 71.344,272.724 67.458 L 272.618 65.833 266.906 65.833 C 263.764 65.833,261.075 65.879,260.930 65.934 C 260.142 66.237,261.110 72.818,262.268 75.026 C 262.396 75.269,262.500 75.588,262.500 75.734 C 262.500 75.880,262.570 76.000,262.655 76.000 C 262.741 76.000,262.864 76.169,262.929 76.375 C 263.063 76.797,263.567 77.514,264.616 78.775 C 270.498 85.842,289.171 86.377,298.172 79.736 C 302.366 76.642,304.370 72.453,304.385 66.750 C 304.399 61.134,301.601 57.084,296.167 54.858 C 295.662 54.651,295.100 54.420,294.917 54.345 C 293.909 53.931,293.544 53.797,292.610 53.499 C 291.145 53.031,289.013 52.401,287.333 51.938 C 286.829 51.799,286.014 51.569,285.523 51.426 C 285.031 51.283,284.520 51.167,284.387 51.167 C 284.255 51.167,283.794 51.061,283.365 50.932 C 282.935 50.803,282.133 50.569,281.583 50.413 C 278.589 49.561,277.788 49.213,276.774 48.320 C 274.560 46.371,274.091 43.262,275.633 40.767 C 278.660 35.874,288.350 36.109,290.574 41.129 C 290.726 41.471,290.915 41.870,290.994 42.017 C 291.074 42.164,291.192 42.637,291.256 43.068 C 291.321 43.499,291.467 44.166,291.580 44.551 L 291.787 45.250 297.230 45.294 L 302.673 45.338 302.852 44.877 C 303.181 44.028,302.648 40.752,301.833 38.615 C 300.558 35.271,297.363 31.929,294.083 30.509 C 293.625 30.311,293.100 30.079,292.917 29.995 C 291.631 29.402,289.146 28.881,286.616 28.674 C 284.285 28.484,284.249 28.484,281.583 28.685 M174.779 29.776 C 174.717 29.838,174.667 30.613,174.667 31.497 L 174.667 33.105 175.312 33.468 C 176.381 34.069,177.444 35.506,178.131 37.282 L 178.571 38.417 178.624 60.743 C 178.664 78.102,178.721 83.098,178.880 83.199 C 179.322 83.480,190.122 83.357,190.232 83.070 C 190.288 82.925,190.333 77.037,190.333 69.986 C 190.333 62.936,190.390 57.169,190.458 57.172 C 190.527 57.175,190.696 57.269,190.833 57.382 C 191.084 57.587,191.222 57.780,193.419 61.000 C 194.075 61.962,195.025 63.350,195.530 64.083 C 196.034 64.817,196.796 65.924,197.222 66.543 C 197.647 67.163,198.346 68.175,198.775 68.793 C 199.203 69.411,200.090 70.704,200.745 71.667 C 201.400 72.629,202.157 73.727,202.427 74.105 C 202.696 74.484,203.013 74.934,203.130 75.105 C 203.248 75.277,204.142 76.579,205.117 78.000 C 206.092 79.421,207.261 81.125,207.714 81.788 C 208.383 82.765,208.636 83.008,209.061 83.075 C 210.268 83.267,223.333 83.251,223.333 83.057 C 223.333 82.951,222.665 81.939,221.848 80.807 C 221.031 79.676,219.513 77.567,218.473 76.122 C 217.434 74.676,215.608 72.148,214.417 70.504 C 213.225 68.860,211.575 66.573,210.750 65.422 C 208.813 62.718,205.723 58.440,203.920 55.968 C 202.223 53.638,202.226 53.667,203.542 52.053 C 204.115 51.350,205.101 50.132,205.734 49.346 C 206.366 48.560,207.018 47.767,207.181 47.583 C 207.529 47.192,209.896 44.330,210.500 43.569 C 211.693 42.065,213.360 40.034,213.753 39.603 C 213.847 39.500,214.222 39.042,214.587 38.583 C 214.951 38.125,215.662 37.257,216.166 36.654 C 216.671 36.051,217.496 35.045,218.000 34.420 C 218.504 33.794,219.179 32.969,219.500 32.586 C 222.159 29.413,222.733 29.759,214.717 29.706 L 208.016 29.663 207.657 30.040 C 207.460 30.247,206.842 31.017,206.284 31.750 C 205.726 32.483,205.224 33.121,205.169 33.167 C 205.074 33.246,203.487 35.288,200.250 39.496 C 196.589 44.254,195.423 45.756,195.331 45.833 C 195.276 45.879,194.749 46.554,194.160 47.333 C 193.572 48.112,192.998 48.862,192.885 49.000 C 192.773 49.137,192.226 49.831,191.670 50.542 C 191.115 51.252,190.587 51.833,190.498 51.833 C 190.395 51.833,190.320 47.801,190.293 40.792 L 190.250 29.750 182.571 29.707 C 178.348 29.683,174.841 29.714,174.779 29.776 M231.779 29.776 C 231.717 29.838,231.667 30.585,231.667 31.436 L 231.667 32.984 232.385 33.478 C 233.832 34.474,234.680 35.692,235.346 37.730 C 235.656 38.677,235.667 39.462,235.667 60.822 C 235.667 77.797,235.713 82.980,235.867 83.133 C 236.098 83.365,246.933 83.424,247.292 83.196 C 247.458 83.090,247.492 77.622,247.459 56.407 L 247.417 29.750 239.654 29.707 C 235.385 29.683,231.841 29.714,231.779 29.776 M315.375 29.773 C 315.230 29.835,315.167 30.327,315.167 31.402 L 315.167 32.943 315.926 33.489 C 317.677 34.746,318.464 36.095,319.192 39.083 C 319.344 39.706,319.419 45.373,319.489 61.500 L 319.583 83.083 325.333 83.083 L 331.083 83.083 331.171 72.583 C 331.219 66.808,331.276 62.065,331.296 62.042 C 331.449 61.870,339.809 62.030,340.047 62.208 C 340.200 62.323,340.691 63.129,341.138 64.000 C 341.899 65.482,343.038 67.663,344.795 71.000 C 345.206 71.779,346.008 73.317,346.579 74.417 C 347.150 75.517,348.128 77.392,348.752 78.583 C 349.377 79.775,350.115 81.200,350.392 81.750 C 351.150 83.255,350.647 83.155,357.542 83.161 C 364.598 83.167,364.058 83.347,362.976 81.355 C 361.823 79.232,361.397 78.450,360.962 77.667 C 360.733 77.254,360.300 76.467,360.000 75.917 C 359.700 75.367,359.267 74.579,359.038 74.167 C 358.809 73.754,358.360 72.929,358.040 72.333 C 357.720 71.737,357.402 71.175,357.333 71.083 C 357.265 70.992,356.947 70.429,356.627 69.833 C 356.307 69.237,355.857 68.412,355.628 68.000 C 355.399 67.587,354.949 66.762,354.628 66.167 C 354.307 65.571,353.858 64.746,353.629 64.333 C 353.400 63.921,352.968 63.133,352.669 62.583 C 352.371 62.033,352.060 61.512,351.980 61.425 C 351.734 61.159,351.810 60.500,352.087 60.500 C 353.024 60.500,355.765 58.713,357.393 57.040 C 363.941 50.309,362.635 38.048,354.814 32.836 C 353.799 32.159,351.798 31.167,351.450 31.167 C 351.331 31.167,351.162 31.096,351.075 31.010 C 350.897 30.833,350.178 30.642,347.750 30.125 C 346.141 29.782,316.127 29.456,315.375 29.773 M372.279 29.776 C 371.915 30.140,372.170 32.987,372.594 33.284 C 373.638 34.016,374.032 34.422,374.718 35.468 C 376.197 37.724,376.065 35.365,376.123 60.608 C 376.165 79.109,376.212 82.997,376.398 83.151 C 376.556 83.283,378.270 83.325,382.186 83.294 L 387.750 83.250 387.750 56.500 L 387.750 29.750 380.071 29.707 C 375.848 29.683,372.341 29.714,372.279 29.776 M343.000 38.908 C 348.913 39.893,351.638 44.220,349.325 48.951 C 348.841 49.941,347.205 51.667,346.750 51.667 C 346.649 51.667,346.479 51.754,346.372 51.861 C 345.459 52.775,343.146 53.072,336.917 53.078 L 331.250 53.083 331.204 46.250 C 331.178 42.492,331.198 39.248,331.249 39.042 L 331.340 38.667 336.462 38.670 C 340.087 38.672,341.997 38.741,343.000 38.908 M178.707 103.370 L 178.750 113.083 180.787 113.130 L 182.824 113.177 182.927 112.768 C 183.080 112.158,182.953 111.761,182.581 111.694 C 182.399 111.660,182.081 111.478,181.875 111.288 L 181.500 110.942 181.500 103.489 C 181.500 95.315,181.463 95.628,182.500 95.114 C 182.825 94.952,182.917 94.779,182.917 94.328 L 182.917 93.750 180.790 93.703 L 178.664 93.657 178.707 103.370 M201.500 94.332 C 201.500 94.892,201.569 95.034,201.900 95.160 C 202.843 95.519,202.833 95.431,202.833 103.431 C 202.833 111.466,202.809 111.667,201.821 111.667 C 201.552 111.667,201.500 111.787,201.500 112.417 L 201.500 113.167 203.375 113.164 C 204.406 113.163,205.344 113.102,205.460 113.028 C 205.625 112.923,205.660 110.870,205.626 103.323 L 205.583 93.750 203.542 93.703 L 201.500 93.656 201.500 94.332 M214.208 93.777 C 213.885 93.908,213.963 94.581,214.341 94.923 C 215.179 95.682,214.773 95.909,212.417 96.000 L 210.250 96.083 210.250 97.250 L 210.250 98.417 211.167 98.500 C 211.676 98.546,212.056 98.657,212.022 98.750 C 211.988 98.842,211.882 99.104,211.786 99.333 C 209.960 103.715,216.086 107.310,220.127 104.228 C 221.517 103.168,222.140 100.419,221.286 99.115 C 220.942 98.589,221.014 98.536,222.167 98.464 L 222.917 98.417 222.969 97.594 C 223.072 95.967,223.117 96.000,220.780 96.000 C 218.481 96.000,218.333 95.937,218.333 94.956 C 218.333 93.734,218.219 93.665,216.202 93.680 C 215.220 93.687,214.323 93.731,214.208 93.777 M222.934 93.930 C 222.680 94.593,222.828 94.993,223.417 95.239 C 223.737 95.373,224.016 95.506,224.036 95.533 C 224.056 95.561,224.113 98.321,224.161 101.667 L 224.250 107.750 225.833 107.750 L 227.417 107.750 227.500 104.667 L 227.583 101.583 228.583 101.540 C 230.365 101.464,230.333 101.488,230.333 100.197 C 230.333 98.802,230.208 98.667,228.917 98.667 C 227.513 98.667,227.500 98.642,227.500 96.068 C 227.500 93.465,227.710 93.667,225.004 93.667 C 223.363 93.667,223.019 93.710,222.934 93.930 M263.867 93.867 C 263.458 94.276,263.633 94.906,264.249 95.238 L 264.830 95.551 264.874 104.317 L 264.917 113.083 266.583 113.083 L 268.250 113.083 268.296 103.750 C 268.321 98.617,268.301 94.248,268.251 94.042 C 268.145 93.602,264.285 93.448,263.867 93.867 M283.700 93.867 C 283.270 94.296,283.465 94.949,284.125 95.292 C 284.740 95.611,284.750 95.632,284.750 96.600 L 284.750 97.583 282.868 97.631 L 280.986 97.678 281.035 98.964 L 281.083 100.250 282.917 100.333 L 284.750 100.417 284.798 102.240 C 284.824 103.243,284.927 104.162,285.026 104.282 C 285.265 104.569,287.849 104.584,288.133 104.300 C 288.345 104.088,288.437 94.463,288.232 93.930 C 288.102 93.592,284.031 93.535,283.700 93.867 M303.434 93.930 C 303.199 94.545,303.334 94.992,303.833 95.250 C 304.108 95.392,304.350 95.525,304.370 95.546 C 304.390 95.567,304.446 98.321,304.495 101.667 L 304.583 107.750 306.250 107.750 L 307.917 107.750 308.000 104.667 L 308.083 101.583 309.333 101.500 L 310.583 101.417 310.583 100.083 L 310.583 98.750 309.506 98.699 C 307.990 98.628,308.000 98.644,308.000 96.180 C 308.000 94.758,307.935 94.001,307.800 93.867 C 307.469 93.536,303.564 93.593,303.434 93.930 M325.367 93.867 C 325.058 94.175,325.118 94.993,325.458 95.114 C 326.208 95.380,326.333 95.665,326.333 97.109 L 326.333 98.500 324.783 98.500 C 322.927 98.500,322.832 98.569,322.836 99.908 C 322.839 101.302,322.852 101.312,324.672 101.368 L 326.250 101.417 326.333 104.583 L 326.417 107.750 328.083 107.750 L 329.750 107.750 329.796 101.083 C 329.822 97.417,329.802 94.248,329.752 94.042 C 329.645 93.602,325.785 93.448,325.367 93.867 M344.899 93.903 C 344.694 94.437,344.910 95.069,345.332 95.167 C 345.855 95.290,346.199 96.105,345.827 96.341 C 345.117 96.790,343.088 96.523,342.491 95.902 C 338.993 92.263,332.667 94.580,332.667 99.500 C 332.667 104.273,338.344 106.635,342.141 103.442 C 342.842 102.853,342.908 102.833,344.193 102.833 C 346.216 102.833,346.167 102.769,346.167 105.405 C 346.167 107.281,346.208 107.647,346.430 107.732 C 346.769 107.862,348.636 107.859,349.125 107.728 L 349.500 107.628 349.500 100.847 C 349.500 95.796,349.449 94.016,349.300 93.867 C 348.991 93.558,345.019 93.590,344.899 93.903 M374.482 94.145 C 371.509 95.653,370.898 99.670,373.367 101.468 C 374.008 101.934,373.730 102.167,372.533 102.167 C 371.163 102.167,371.000 102.302,371.000 103.440 C 371.000 104.552,371.027 104.566,373.333 104.667 L 375.250 104.750 375.303 105.497 C 375.381 106.586,375.505 106.667,377.104 106.667 L 378.500 106.667 378.500 105.930 C 378.500 104.632,378.434 104.667,380.923 104.667 C 383.517 104.667,383.667 104.595,383.667 103.355 C 383.667 102.265,383.513 102.167,381.810 102.167 C 380.089 102.167,379.948 102.041,380.761 101.228 C 384.514 97.475,379.366 91.668,374.482 94.145 M383.371 93.862 C 382.958 94.275,383.130 94.905,383.747 95.237 C 384.518 95.652,384.522 95.690,384.465 101.417 L 384.417 106.250 382.667 106.333 L 380.917 106.417 380.866 107.119 C 380.764 108.524,380.734 108.513,384.466 108.462 L 387.750 108.417 387.750 101.083 L 387.750 93.750 385.663 93.704 C 384.181 93.671,383.517 93.717,383.371 93.862 M233.829 94.594 C 233.026 96.708,233.329 96.833,239.229 96.833 C 245.247 96.833,245.069 96.742,244.481 99.533 C 244.173 100.992,244.652 100.899,238.151 100.769 C 231.523 100.636,231.955 100.535,232.033 102.194 L 232.083 103.250 235.404 103.295 C 239.228 103.347,239.167 103.325,239.167 104.684 C 239.167 105.871,239.297 105.820,236.083 105.876 L 233.750 105.917 233.700 106.889 C 233.621 108.415,233.311 108.333,239.177 108.333 C 245.178 108.333,244.556 108.041,244.667 110.917 L 244.750 113.083 246.417 113.083 L 248.083 113.083 248.129 109.688 C 248.184 105.503,248.434 105.854,245.358 105.796 L 242.917 105.750 242.917 104.583 L 242.917 103.417 246.500 103.333 L 250.083 103.250 250.134 102.184 C 250.194 100.895,250.097 100.778,248.868 100.668 C 247.926 100.584,247.917 100.579,247.972 100.083 C 248.175 98.233,248.174 94.441,247.970 94.312 C 247.849 94.235,244.654 94.171,240.871 94.169 L 233.992 94.167 233.829 94.594 M273.944 94.278 C 273.639 94.583,273.845 95.346,274.278 95.511 C 275.134 95.836,275.415 97.300,274.848 98.477 C 274.168 99.887,273.845 100.416,273.417 100.824 C 272.888 101.328,271.726 102.000,271.385 102.000 C 270.234 102.000,270.146 102.578,271.146 103.563 L 271.959 104.363 272.938 104.066 C 274.239 103.670,275.607 102.762,276.227 101.882 C 276.823 101.036,276.875 101.024,277.275 101.641 C 278.122 102.946,281.058 104.587,281.810 104.176 C 282.345 103.883,283.377 102.687,283.290 102.460 C 283.241 102.333,282.882 102.134,282.491 102.017 C 281.061 101.588,279.903 100.636,279.351 99.433 C 278.728 98.075,278.667 97.794,278.667 96.315 C 278.667 94.105,278.737 94.167,276.189 94.167 C 275.015 94.167,274.006 94.217,273.944 94.278 M294.772 94.577 C 289.069 96.921,290.798 104.845,297.016 104.865 C 302.250 104.882,304.642 99.069,300.823 95.614 C 299.185 94.131,296.835 93.728,294.772 94.577 M353.278 94.278 C 353.139 94.417,353.131 96.213,353.268 96.570 C 353.357 96.802,353.981 96.833,358.568 96.833 C 362.389 96.833,363.820 96.886,363.967 97.033 C 364.378 97.445,364.122 102.111,363.662 102.571 C 363.545 102.689,361.395 102.778,357.367 102.833 L 351.250 102.917 351.198 103.824 C 351.170 104.324,351.190 104.905,351.243 105.116 L 351.340 105.500 354.811 105.500 C 359.232 105.500,358.813 105.078,358.872 109.593 L 358.917 113.083 360.583 113.083 L 362.250 113.083 362.295 109.513 C 362.324 107.222,362.406 105.863,362.524 105.721 C 362.665 105.551,363.469 105.500,366.017 105.500 L 369.327 105.500 369.423 105.116 C 369.476 104.905,369.497 104.324,369.468 103.824 L 369.417 102.917 368.417 102.833 L 367.417 102.750 367.469 102.167 C 367.671 99.889,367.672 94.440,367.470 94.312 C 367.211 94.147,353.441 94.114,353.278 94.278 M185.444 94.611 C 185.306 94.750,185.298 96.547,185.434 96.903 C 185.520 97.126,185.894 97.167,187.856 97.167 C 190.378 97.167,190.497 97.213,190.173 98.065 C 189.705 99.299,187.323 100.972,185.333 101.467 C 184.906 101.573,184.764 101.690,184.803 101.905 C 184.881 102.343,186.398 103.833,186.765 103.833 C 187.551 103.833,190.219 102.590,191.278 101.730 C 192.077 101.082,192.221 101.054,192.636 101.469 C 192.961 101.794,194.650 102.823,195.333 103.111 C 195.563 103.208,196.034 103.410,196.381 103.560 C 197.383 103.995,197.682 103.914,198.631 102.953 C 199.673 101.898,199.728 101.580,198.895 101.424 C 196.797 101.030,194.000 98.822,194.000 97.558 C 194.000 97.167,194.003 97.167,196.178 97.167 C 198.893 97.167,199.000 97.117,199.000 95.861 C 199.000 95.332,198.910 94.810,198.800 94.700 C 198.583 94.483,185.659 94.397,185.444 94.611 M254.247 94.838 C 254.011 95.220,254.342 95.832,254.914 96.071 C 255.645 96.377,255.743 96.764,255.610 98.814 C 255.397 102.101,254.086 104.355,251.773 105.413 C 250.636 105.933,250.626 106.028,251.602 107.019 C 252.266 107.694,252.431 107.782,252.812 107.673 C 254.193 107.277,255.952 105.944,256.833 104.626 C 257.348 103.856,257.296 103.849,258.000 104.790 C 259.932 107.371,261.940 108.206,263.140 106.926 C 264.032 105.974,264.028 105.956,262.765 105.341 C 261.224 104.590,260.075 103.233,259.447 101.421 C 259.351 101.144,259.230 99.529,259.178 97.833 L 259.083 94.750 256.721 94.704 C 255.156 94.673,254.321 94.719,254.247 94.838 M313.278 94.778 C 313.124 94.931,313.142 96.871,313.300 97.118 C 313.381 97.247,314.001 97.337,315.006 97.368 L 316.583 97.417 316.565 98.362 C 316.524 100.432,314.727 102.947,312.976 103.387 C 312.737 103.447,312.371 103.634,312.162 103.804 L 311.782 104.112 312.824 104.979 C 313.971 105.934,313.952 105.932,315.436 105.214 C 316.335 104.779,317.921 103.344,318.090 102.813 C 318.247 102.318,318.768 102.445,319.135 103.068 C 319.692 104.010,322.288 105.828,323.083 105.831 C 323.175 105.831,323.684 105.447,324.214 104.977 C 325.272 104.038,325.260 103.657,324.165 103.416 C 322.514 103.054,320.715 100.712,320.438 98.564 C 320.294 97.448,320.422 97.359,322.259 97.299 L 323.750 97.250 323.799 95.958 L 323.847 94.667 318.618 94.667 C 315.742 94.667,313.339 94.717,313.278 94.778 M378.007 96.375 C 378.983 97.413,378.974 98.984,377.986 99.930 C 376.218 101.624,374.031 98.394,375.728 96.595 C 376.428 95.853,377.425 95.757,378.007 96.375 M297.709 96.931 C 299.434 97.753,299.616 101.102,297.989 102.063 C 296.273 103.077,294.301 100.959,294.944 98.794 C 295.462 97.049,296.496 96.352,297.709 96.931 M339.278 97.093 C 341.109 98.490,340.355 102.333,338.250 102.333 C 337.116 102.333,336.167 101.057,336.167 99.534 C 336.167 97.314,337.843 95.999,339.278 97.093 M345.804 98.645 C 346.150 98.864,346.252 100.055,345.947 100.308 C 345.394 100.767,343.923 100.484,343.867 99.907 C 343.750 98.710,344.813 98.017,345.804 98.645 M217.293 98.999 C 218.840 99.942,218.792 102.283,217.212 102.943 C 215.006 103.865,213.794 100.267,215.882 98.994 C 216.545 98.590,216.622 98.590,217.293 98.999 M188.333 104.833 L 183.750 104.917 183.700 105.973 C 183.626 107.539,183.539 107.500,187.083 107.500 C 190.781 107.500,190.478 107.236,190.537 110.512 L 190.583 113.083 192.083 113.083 L 193.583 113.083 193.667 110.333 L 193.750 107.583 197.250 107.500 L 200.750 107.417 200.799 106.125 L 200.847 104.833 199.882 104.829 C 199.351 104.826,197.567 104.808,195.917 104.787 C 194.267 104.767,190.854 104.787,188.333 104.833 M275.167 105.118 C 274.780 105.271,274.672 105.524,274.669 106.286 C 274.665 107.327,274.698 107.333,280.084 107.333 L 284.857 107.333 284.803 107.708 L 284.750 108.083 279.931 108.128 C 274.241 108.180,274.667 108.014,274.667 110.181 C 274.667 113.373,274.205 113.189,282.083 113.130 L 288.250 113.083 288.250 112.167 L 288.250 111.250 283.500 111.167 C 278.817 111.085,278.333 111.031,278.333 110.591 C 278.333 110.203,278.765 110.167,283.424 110.167 C 287.766 110.167,287.997 110.151,288.161 109.844 C 288.377 109.441,288.385 105.672,288.170 105.333 C 288.008 105.077,275.782 104.874,275.167 105.118 M214.000 106.496 C 213.616 106.739,213.538 111.601,213.907 112.314 C 214.350 113.171,214.373 113.174,221.118 113.127 L 227.417 113.083 227.417 111.917 L 227.417 110.750 222.514 110.706 C 216.702 110.653,217.167 110.844,217.167 108.513 C 217.167 107.351,217.097 106.664,216.967 106.533 C 216.727 106.294,214.368 106.264,214.000 106.496 M294.158 106.682 C 294.035 106.912,293.991 107.967,294.028 109.780 C 294.104 113.555,293.290 113.181,301.313 113.127 L 307.750 113.083 307.750 111.917 L 307.750 110.750 302.667 110.667 L 297.583 110.583 297.538 108.667 C 297.483 106.350,297.470 106.333,295.641 106.333 C 294.497 106.333,294.323 106.374,294.158 106.682 M315.958 106.513 C 315.699 106.664,315.667 106.989,315.667 109.407 L 315.667 112.131 316.152 112.651 L 316.637 113.171 323.194 113.127 L 329.750 113.083 329.750 111.917 L 329.750 110.750 324.583 110.667 L 319.417 110.583 319.333 108.619 C 319.270 107.121,319.191 106.617,319.000 106.496 C 318.666 106.286,316.327 106.299,315.958 106.513 M335.681 106.566 C 335.534 106.743,335.492 107.592,335.531 109.637 C 335.604 113.554,334.783 113.167,342.917 113.121 L 349.417 113.083 349.466 111.958 C 349.526 110.586,350.303 110.777,344.250 110.673 L 339.083 110.583 339.000 108.500 L 338.917 106.417 337.400 106.369 C 336.227 106.332,335.838 106.377,335.681 106.566 M373.559 107.588 C 373.334 108.174,373.588 112.104,373.879 112.549 C 374.284 113.167,374.516 113.185,381.500 113.131 L 387.750 113.083 387.750 111.917 L 387.750 110.750 382.537 110.706 L 377.323 110.662 377.162 110.237 C 377.073 110.003,377.000 109.254,377.000 108.572 L 377.000 107.333 375.328 107.333 C 373.983 107.333,373.637 107.383,373.559 107.588 " stroke="none" fill="#353535" fill-rule="evenodd"></path><path id="path4" d="M0.000 65.583 L 0.000 131.167 200.000 131.167 L 400.000 131.167 400.000 65.583 L 400.000 0.000 200.000 0.000 L 0.000 0.000 0.000 65.583 M36.084 11.875 C 36.134 12.081,36.154 32.725,36.129 57.750 L 36.083 103.250 22.417 103.250 L 8.750 103.250 8.704 57.750 C 8.679 32.725,8.700 12.081,8.749 11.875 L 8.840 11.500 22.417 11.500 L 35.994 11.500 36.084 11.875 M88.167 11.754 C 88.167 11.894,87.998 12.081,87.792 12.170 C 87.585 12.260,87.267 12.426,87.085 12.541 C 84.709 14.036,84.006 14.529,82.673 15.634 C 77.541 19.887,74.395 24.697,72.894 30.583 C 72.236 33.165,72.539 40.236,73.444 43.417 C 73.990 45.336,74.221 46.102,74.348 46.417 C 74.422 46.600,74.645 47.163,74.844 47.667 C 77.692 54.878,83.893 61.655,93.750 68.330 C 95.625 69.600,101.183 73.300,102.261 73.996 C 102.897 74.407,103.454 74.782,103.500 74.831 C 103.546 74.880,104.145 75.292,104.832 75.747 C 106.064 76.565,109.913 79.392,110.264 79.738 C 110.364 79.836,110.851 80.254,111.347 80.666 C 112.732 81.816,115.248 84.311,115.948 85.229 C 116.292 85.681,116.655 86.133,116.754 86.234 C 116.852 86.334,117.214 86.873,117.556 87.430 C 121.427 93.726,117.496 100.761,108.848 103.012 C 107.289 103.418,60.001 103.527,59.999 103.125 C 59.953 86.758,60.030 11.753,60.094 11.650 C 60.275 11.357,88.167 11.461,88.167 11.754 M156.133 28.200 C 156.425 28.491,156.425 114.842,156.133 115.133 C 155.982 115.284,153.496 115.333,145.967 115.333 C 134.606 115.333,135.253 115.435,136.975 113.917 C 139.201 111.953,143.000 106.363,143.000 105.049 C 143.000 104.928,143.068 104.699,143.152 104.539 C 143.870 103.171,144.569 99.829,144.851 96.417 C 145.227 91.861,144.652 87.591,143.203 84.167 C 140.876 78.667,137.572 74.241,132.248 69.490 C 131.882 69.164,130.083 67.773,128.250 66.399 C 123.296 62.686,122.799 62.334,117.167 58.550 C 115.013 57.103,113.212 55.880,113.167 55.832 C 113.121 55.784,111.846 54.926,110.333 53.924 C 100.090 47.141,95.968 42.223,96.212 37.075 C 96.451 32.028,99.705 29.018,105.750 28.253 C 108.113 27.954,155.837 27.904,156.133 28.200 M286.616 28.674 C 289.146 28.881,291.631 29.402,292.917 29.995 C 293.100 30.079,293.625 30.311,294.083 30.509 C 297.363 31.929,300.558 35.271,301.833 38.615 C 302.648 40.752,303.181 44.028,302.852 44.877 L 302.673 45.338 297.230 45.294 L 291.787 45.250 291.580 44.551 C 291.467 44.166,291.321 43.499,291.256 43.068 C 291.192 42.637,291.074 42.164,290.994 42.017 C 290.915 41.870,290.726 41.471,290.574 41.129 C 288.350 36.109,278.660 35.874,275.633 40.767 C 274.091 43.262,274.560 46.371,276.774 48.320 C 277.788 49.213,278.589 49.561,281.583 50.413 C 282.133 50.569,282.935 50.803,283.365 50.932 C 283.794 51.061,284.255 51.167,284.387 51.167 C 284.520 51.167,285.031 51.283,285.523 51.426 C 286.014 51.569,286.829 51.799,287.333 51.938 C 289.013 52.401,291.145 53.031,292.610 53.499 C 293.544 53.797,293.909 53.931,294.917 54.345 C 295.100 54.420,295.662 54.651,296.167 54.858 C 303.328 57.792,306.235 64.880,303.471 72.667 C 301.712 77.621,297.249 81.442,291.333 83.060 C 282.235 85.549,271.857 84.472,266.471 80.479 C 265.077 79.445,263.220 77.293,262.929 76.375 C 262.864 76.169,262.741 76.000,262.655 76.000 C 262.570 76.000,262.500 75.880,262.500 75.734 C 262.500 75.588,262.396 75.269,262.268 75.026 C 261.110 72.818,260.142 66.237,260.930 65.934 C 261.075 65.879,263.764 65.833,266.906 65.833 L 272.618 65.833 272.724 67.458 C 272.976 71.344,275.668 75.149,278.175 75.165 C 278.317 75.166,278.527 75.260,278.642 75.375 C 279.398 76.131,285.751 75.487,288.083 74.417 C 292.963 72.178,293.108 66.057,288.341 63.505 C 287.647 63.133,287.156 62.981,284.833 62.422 C 283.341 62.062,278.158 60.709,277.167 60.420 C 276.662 60.273,276.025 60.088,275.750 60.008 C 275.475 59.928,274.837 59.700,274.333 59.501 C 273.829 59.303,273.178 59.069,272.886 58.982 C 271.003 58.420,267.491 56.292,265.777 54.673 C 264.454 53.424,262.842 50.949,262.835 50.158 C 262.834 50.016,262.769 49.829,262.690 49.742 C 262.484 49.514,262.167 47.358,262.167 46.188 C 262.167 43.573,262.955 40.227,263.947 38.628 C 264.160 38.286,264.333 37.967,264.333 37.918 C 264.333 36.367,270.256 31.654,273.750 30.425 C 274.208 30.263,274.733 30.066,274.917 29.986 C 275.263 29.835,277.249 29.342,278.833 29.013 C 279.625 28.849,282.244 28.598,283.949 28.523 C 284.242 28.510,285.442 28.578,286.616 28.674 M190.293 40.792 C 190.320 47.801,190.395 51.833,190.498 51.833 C 190.587 51.833,191.115 51.252,191.670 50.542 C 192.226 49.831,192.773 49.137,192.885 49.000 C 192.998 48.862,193.572 48.112,194.160 47.333 C 194.749 46.554,195.276 45.879,195.331 45.833 C 195.423 45.756,196.589 44.254,200.250 39.496 C 203.487 35.288,205.074 33.246,205.169 33.167 C 205.224 33.121,205.726 32.483,206.284 31.750 C 206.842 31.017,207.460 30.247,207.657 30.040 L 208.016 29.663 214.717 29.706 C 222.733 29.759,222.159 29.413,219.500 32.586 C 219.179 32.969,218.504 33.794,218.000 34.420 C 217.496 35.045,216.671 36.051,216.166 36.654 C 215.662 37.257,214.951 38.125,214.587 38.583 C 214.222 39.042,213.847 39.500,213.753 39.603 C 213.360 40.034,211.693 42.065,210.500 43.569 C 209.896 44.330,207.529 47.192,207.181 47.583 C 207.018 47.767,206.366 48.560,205.734 49.346 C 205.101 50.132,204.115 51.350,203.542 52.053 C 202.226 53.667,202.223 53.638,203.920 55.968 C 205.723 58.440,208.813 62.718,210.750 65.422 C 211.575 66.573,213.225 68.860,214.417 70.504 C 215.608 72.148,217.434 74.676,218.473 76.122 C 219.513 77.567,221.031 79.676,221.848 80.807 C 222.665 81.939,223.333 82.951,223.333 83.057 C 223.333 83.251,210.268 83.267,209.061 83.075 C 208.636 83.008,208.383 82.765,207.714 81.788 C 207.261 81.125,206.092 79.421,205.117 78.000 C 204.142 76.579,203.248 75.277,203.130 75.105 C 203.013 74.934,202.696 74.484,202.427 74.105 C 202.157 73.727,201.400 72.629,200.745 71.667 C 200.090 70.704,199.203 69.411,198.775 68.793 C 198.346 68.175,197.647 67.163,197.222 66.543 C 196.796 65.924,196.034 64.817,195.530 64.083 C 195.025 63.350,194.075 61.962,193.419 61.000 C 191.222 57.780,191.084 57.587,190.833 57.382 C 190.696 57.269,190.527 57.175,190.458 57.172 C 190.390 57.169,190.333 62.936,190.333 69.986 C 190.333 77.037,190.288 82.925,190.232 83.070 C 190.122 83.357,179.322 83.480,178.880 83.199 C 178.721 83.098,178.664 78.102,178.624 60.743 L 178.571 38.417 178.131 37.282 C 177.444 35.506,176.381 34.069,175.312 33.468 L 174.667 33.105 174.667 31.497 C 174.667 30.613,174.717 29.838,174.779 29.776 C 174.841 29.714,178.348 29.683,182.571 29.707 L 190.250 29.750 190.293 40.792 M247.459 56.407 C 247.492 77.622,247.458 83.090,247.292 83.196 C 246.933 83.424,236.098 83.365,235.867 83.133 C 235.713 82.980,235.667 77.797,235.667 60.822 C 235.667 39.462,235.656 38.677,235.346 37.730 C 234.680 35.692,233.832 34.474,232.385 33.478 L 231.667 32.984 231.667 31.436 C 231.667 30.585,231.717 29.838,231.779 29.776 C 231.841 29.714,235.385 29.683,239.654 29.707 L 247.417 29.750 247.459 56.407 M347.750 30.125 C 350.178 30.642,350.897 30.833,351.075 31.010 C 351.162 31.096,351.331 31.167,351.450 31.167 C 351.798 31.167,353.799 32.159,354.814 32.836 C 362.635 38.048,363.941 50.309,357.393 57.040 C 355.765 58.713,353.024 60.500,352.087 60.500 C 351.810 60.500,351.734 61.159,351.980 61.425 C 352.060 61.512,352.371 62.033,352.669 62.583 C 352.968 63.133,353.400 63.921,353.629 64.333 C 353.858 64.746,354.307 65.571,354.628 66.167 C 354.949 66.762,355.399 67.587,355.628 68.000 C 355.857 68.412,356.307 69.237,356.627 69.833 C 356.947 70.429,357.265 70.992,357.333 71.083 C 357.402 71.175,357.720 71.737,358.040 72.333 C 358.360 72.929,358.809 73.754,359.038 74.167 C 359.267 74.579,359.700 75.367,360.000 75.917 C 360.300 76.467,360.733 77.254,360.962 77.667 C 361.397 78.450,361.823 79.232,362.976 81.355 C 364.058 83.347,364.598 83.167,357.542 83.161 C 350.647 83.155,351.150 83.255,350.392 81.750 C 350.115 81.200,349.377 79.775,348.752 78.583 C 348.128 77.392,347.150 75.517,346.579 74.417 C 346.008 73.317,345.206 71.779,344.795 71.000 C 343.038 67.663,341.899 65.482,341.138 64.000 C 340.691 63.129,340.200 62.323,340.047 62.208 C 339.809 62.030,331.449 61.870,331.296 62.042 C 331.276 62.065,331.219 66.808,331.171 72.583 L 331.083 83.083 325.333 83.083 L 319.583 83.083 319.489 61.500 C 319.419 45.373,319.344 39.706,319.192 39.083 C 318.464 36.095,317.677 34.746,315.926 33.489 L 315.167 32.943 315.167 31.402 C 315.167 30.327,315.230 29.835,315.375 29.773 C 316.127 29.456,346.141 29.782,347.750 30.125 M387.750 56.500 L 387.750 83.250 382.186 83.294 C 378.270 83.325,376.556 83.283,376.398 83.151 C 376.212 82.997,376.165 79.109,376.123 60.608 C 376.065 35.365,376.197 37.724,374.718 35.468 C 374.032 34.422,373.638 34.016,372.594 33.284 C 372.170 32.987,371.915 30.140,372.279 29.776 C 372.341 29.714,375.848 29.683,380.071 29.707 L 387.750 29.750 387.750 56.500 M331.249 39.042 C 331.198 39.248,331.178 42.492,331.204 46.250 L 331.250 53.083 336.917 53.078 C 343.146 53.072,345.459 52.775,346.372 51.861 C 346.479 51.754,346.649 51.667,346.750 51.667 C 347.205 51.667,348.841 49.941,349.325 48.951 C 350.993 45.538,349.963 42.005,346.768 40.177 C 344.530 38.896,343.004 38.673,336.462 38.670 L 331.340 38.667 331.249 39.042 M182.917 94.328 C 182.917 94.779,182.825 94.952,182.500 95.114 C 181.463 95.628,181.500 95.315,181.500 103.489 L 181.500 110.942 181.875 111.288 C 182.081 111.478,182.399 111.660,182.581 111.694 C 182.953 111.761,183.080 112.158,182.927 112.768 L 182.824 113.177 180.787 113.130 L 178.750 113.083 178.707 103.370 L 178.664 93.657 180.790 93.703 L 182.917 93.750 182.917 94.328 M205.626 103.323 C 205.660 110.870,205.625 112.923,205.460 113.028 C 205.344 113.102,204.406 113.163,203.375 113.164 L 201.500 113.167 201.500 112.417 C 201.500 111.787,201.552 111.667,201.821 111.667 C 202.809 111.667,202.833 111.466,202.833 103.431 C 202.833 95.431,202.843 95.519,201.900 95.160 C 201.569 95.034,201.500 94.892,201.500 94.332 L 201.500 93.656 203.542 93.703 L 205.583 93.750 205.626 103.323 M218.161 93.989 C 218.256 94.166,218.333 94.601,218.333 94.956 C 218.333 95.937,218.481 96.000,220.780 96.000 C 223.117 96.000,223.072 95.967,222.969 97.594 L 222.917 98.417 222.167 98.464 C 221.014 98.536,220.942 98.589,221.286 99.115 C 222.140 100.419,221.517 103.168,220.127 104.228 C 216.086 107.310,209.960 103.715,211.786 99.333 C 211.882 99.104,211.988 98.842,212.022 98.750 C 212.056 98.657,211.676 98.546,211.167 98.500 L 210.250 98.417 210.250 97.250 L 210.250 96.083 212.417 96.000 C 214.773 95.909,215.179 95.682,214.341 94.923 C 213.963 94.581,213.885 93.908,214.208 93.777 C 214.877 93.507,217.992 93.674,218.161 93.989 M227.236 93.768 C 227.458 93.853,227.500 94.217,227.500 96.068 C 227.500 98.642,227.513 98.667,228.917 98.667 C 230.208 98.667,230.333 98.802,230.333 100.197 C 230.333 101.488,230.365 101.464,228.583 101.540 L 227.583 101.583 227.500 104.667 L 227.417 107.750 225.833 107.750 L 224.250 107.750 224.161 101.667 C 224.113 98.321,224.056 95.561,224.036 95.533 C 224.016 95.506,223.737 95.373,223.417 95.239 C 222.828 94.993,222.680 94.593,222.934 93.930 C 223.039 93.659,226.601 93.524,227.236 93.768 M268.251 94.042 C 268.301 94.248,268.321 98.617,268.296 103.750 L 268.250 113.083 266.583 113.083 L 264.917 113.083 264.874 104.317 L 264.830 95.551 264.249 95.238 C 263.633 94.906,263.458 94.276,263.867 93.867 C 264.285 93.448,268.145 93.602,268.251 94.042 M288.232 93.930 C 288.437 94.463,288.345 104.088,288.133 104.300 C 287.849 104.584,285.265 104.569,285.026 104.282 C 284.927 104.162,284.824 103.243,284.798 102.240 L 284.750 100.417 282.917 100.333 L 281.083 100.250 281.035 98.964 L 280.986 97.678 282.868 97.631 L 284.750 97.583 284.750 96.600 C 284.750 95.632,284.740 95.611,284.125 95.292 C 283.465 94.949,283.270 94.296,283.700 93.867 C 284.031 93.535,288.102 93.592,288.232 93.930 M307.800 93.867 C 307.935 94.001,308.000 94.758,308.000 96.180 C 308.000 98.644,307.990 98.628,309.506 98.699 L 310.583 98.750 310.583 100.083 L 310.583 101.417 309.333 101.500 L 308.083 101.583 308.000 104.667 L 307.917 107.750 306.250 107.750 L 304.583 107.750 304.495 101.667 C 304.446 98.321,304.390 95.567,304.370 95.546 C 304.350 95.525,304.108 95.392,303.833 95.250 C 303.334 94.992,303.199 94.545,303.434 93.930 C 303.564 93.593,307.469 93.536,307.800 93.867 M329.752 94.042 C 329.802 94.248,329.822 97.417,329.796 101.083 L 329.750 107.750 328.083 107.750 L 326.417 107.750 326.333 104.583 L 326.250 101.417 324.672 101.368 C 322.852 101.312,322.839 101.302,322.836 99.908 C 322.832 98.569,322.927 98.500,324.783 98.500 L 326.333 98.500 326.333 97.109 C 326.333 95.665,326.208 95.380,325.458 95.114 C 325.118 94.993,325.058 94.175,325.367 93.867 C 325.785 93.448,329.645 93.602,329.752 94.042 M349.300 93.867 C 349.449 94.016,349.500 95.796,349.500 100.847 L 349.500 107.628 349.125 107.728 C 348.636 107.859,346.769 107.862,346.430 107.732 C 346.208 107.647,346.167 107.281,346.167 105.405 C 346.167 102.769,346.216 102.833,344.193 102.833 C 342.908 102.833,342.842 102.853,342.141 103.442 C 338.344 106.635,332.667 104.273,332.667 99.500 C 332.667 94.580,338.993 92.263,342.491 95.902 C 343.088 96.523,345.117 96.790,345.827 96.341 C 346.199 96.105,345.855 95.290,345.332 95.167 C 344.910 95.069,344.694 94.437,344.899 93.903 C 345.019 93.590,348.991 93.558,349.300 93.867 M379.036 93.958 C 382.071 95.024,383.010 98.979,380.761 101.228 C 379.948 102.041,380.089 102.167,381.810 102.167 C 383.513 102.167,383.667 102.265,383.667 103.355 C 383.667 104.595,383.517 104.667,380.923 104.667 C 378.434 104.667,378.500 104.632,378.500 105.930 L 378.500 106.667 377.104 106.667 C 375.505 106.667,375.381 106.586,375.303 105.497 L 375.250 104.750 373.333 104.667 C 371.027 104.566,371.000 104.552,371.000 103.440 C 371.000 102.302,371.163 102.167,372.533 102.167 C 373.730 102.167,374.008 101.934,373.367 101.468 C 371.755 100.294,371.379 97.556,372.584 95.753 C 373.836 93.880,376.614 93.108,379.036 93.958 M387.750 101.083 L 387.750 108.417 384.466 108.462 C 380.734 108.513,380.764 108.524,380.866 107.119 L 380.917 106.417 382.667 106.333 L 384.417 106.250 384.465 101.417 C 384.522 95.690,384.518 95.652,383.747 95.237 C 383.316 95.004,383.167 94.814,383.167 94.495 C 383.167 93.730,383.407 93.654,385.663 93.704 L 387.750 93.750 387.750 101.083 M247.970 94.312 C 248.174 94.441,248.175 98.233,247.972 100.083 C 247.917 100.579,247.926 100.584,248.868 100.668 C 250.097 100.778,250.194 100.895,250.134 102.184 L 250.083 103.250 246.500 103.333 L 242.917 103.417 242.917 104.583 L 242.917 105.750 245.358 105.796 C 248.434 105.854,248.184 105.503,248.129 109.688 L 248.083 113.083 246.417 113.083 L 244.750 113.083 244.667 110.917 C 244.556 108.041,245.178 108.333,239.177 108.333 C 233.311 108.333,233.621 108.415,233.700 106.889 L 233.750 105.917 236.083 105.876 C 239.297 105.820,239.167 105.871,239.167 104.684 C 239.167 103.325,239.228 103.347,235.404 103.295 L 232.083 103.250 232.033 102.194 C 231.955 100.535,231.523 100.636,238.151 100.769 C 244.652 100.899,244.173 100.992,244.481 99.533 C 245.069 96.742,245.247 96.833,239.229 96.833 C 233.329 96.833,233.026 96.708,233.829 94.594 L 233.992 94.167 240.871 94.169 C 244.654 94.171,247.849 94.235,247.970 94.312 M278.494 94.489 C 278.589 94.666,278.667 95.488,278.667 96.315 C 278.667 97.794,278.728 98.075,279.351 99.433 C 279.903 100.636,281.061 101.588,282.491 102.017 C 282.882 102.134,283.241 102.333,283.290 102.460 C 283.377 102.687,282.345 103.883,281.810 104.176 C 281.058 104.587,278.122 102.946,277.275 101.641 C 276.875 101.024,276.823 101.036,276.227 101.882 C 275.607 102.762,274.239 103.670,272.938 104.066 L 271.959 104.363 271.146 103.563 C 270.146 102.578,270.234 102.000,271.385 102.000 C 271.726 102.000,272.888 101.328,273.417 100.824 C 273.845 100.416,274.168 99.887,274.848 98.477 C 275.415 97.300,275.134 95.836,274.278 95.511 C 273.845 95.346,273.639 94.583,273.944 94.278 C 274.249 93.973,278.319 94.162,278.494 94.489 M298.952 94.450 C 302.725 95.639,303.911 100.709,301.036 103.359 C 298.072 106.092,292.787 104.965,291.604 101.349 C 290.163 96.943,294.360 93.002,298.952 94.450 M367.470 94.312 C 367.672 94.440,367.671 99.889,367.469 102.167 L 367.417 102.750 368.417 102.833 L 369.417 102.917 369.468 103.824 C 369.497 104.324,369.476 104.905,369.423 105.116 L 369.327 105.500 366.017 105.500 C 363.469 105.500,362.665 105.551,362.524 105.721 C 362.406 105.863,362.324 107.222,362.295 109.513 L 362.250 113.083 360.583 113.083 L 358.917 113.083 358.872 109.593 C 358.813 105.078,359.232 105.500,354.811 105.500 L 351.340 105.500 351.243 105.116 C 351.190 104.905,351.170 104.324,351.198 103.824 L 351.250 102.917 357.367 102.833 C 361.395 102.778,363.545 102.689,363.662 102.571 C 364.122 102.111,364.378 97.445,363.967 97.033 C 363.820 96.886,362.389 96.833,358.568 96.833 C 353.981 96.833,353.357 96.802,353.268 96.570 C 353.131 96.213,353.139 94.417,353.278 94.278 C 353.441 94.114,367.211 94.147,367.470 94.312 M198.800 94.700 C 198.910 94.810,199.000 95.332,199.000 95.861 C 199.000 97.117,198.893 97.167,196.178 97.167 C 194.003 97.167,194.000 97.167,194.000 97.558 C 194.000 98.822,196.797 101.030,198.895 101.424 C 199.728 101.580,199.673 101.898,198.631 102.953 C 197.682 103.914,197.383 103.995,196.381 103.560 C 196.034 103.410,195.563 103.208,195.333 103.111 C 194.650 102.823,192.961 101.794,192.636 101.469 C 192.221 101.054,192.077 101.082,191.278 101.730 C 190.219 102.590,187.551 103.833,186.765 103.833 C 186.398 103.833,184.881 102.343,184.803 101.905 C 184.764 101.690,184.906 101.573,185.333 101.467 C 187.323 100.972,189.705 99.299,190.173 98.065 C 190.497 97.213,190.378 97.167,187.856 97.167 C 185.894 97.167,185.520 97.126,185.434 96.903 C 185.298 96.547,185.306 94.750,185.444 94.611 C 185.659 94.397,198.583 94.483,198.800 94.700 M259.178 97.833 C 259.230 99.529,259.351 101.144,259.447 101.421 C 260.075 103.233,261.224 104.590,262.765 105.341 C 264.028 105.956,264.032 105.974,263.140 106.926 C 261.940 108.206,259.932 107.371,258.000 104.790 C 257.296 103.849,257.348 103.856,256.833 104.626 C 255.952 105.944,254.193 107.277,252.812 107.673 C 252.431 107.782,252.266 107.694,251.602 107.019 C 250.626 106.028,250.636 105.933,251.773 105.413 C 254.086 104.355,255.397 102.101,255.610 98.814 C 255.743 96.764,255.645 96.377,254.914 96.071 C 254.342 95.832,254.011 95.220,254.247 94.838 C 254.321 94.719,255.156 94.673,256.721 94.704 L 259.083 94.750 259.178 97.833 M323.799 95.958 L 323.750 97.250 322.259 97.299 C 320.422 97.359,320.294 97.448,320.438 98.564 C 320.715 100.712,322.514 103.054,324.165 103.416 C 325.260 103.657,325.272 104.038,324.214 104.977 C 323.684 105.447,323.175 105.831,323.083 105.831 C 322.288 105.828,319.692 104.010,319.135 103.068 C 318.768 102.445,318.247 102.318,318.090 102.813 C 317.921 103.344,316.335 104.779,315.436 105.214 C 313.952 105.932,313.971 105.934,312.824 104.979 L 311.782 104.112 312.162 103.804 C 312.371 103.634,312.737 103.447,312.976 103.387 C 314.727 102.947,316.524 100.432,316.565 98.362 L 316.583 97.417 315.006 97.368 C 313.184 97.312,313.173 97.303,313.169 95.903 C 313.166 94.563,312.708 94.667,318.618 94.667 L 323.847 94.667 323.799 95.958 M375.728 96.595 C 374.031 98.394,376.218 101.624,377.986 99.930 C 379.374 98.600,378.703 96.000,376.972 96.000 C 376.405 96.000,376.194 96.101,375.728 96.595 M296.304 96.892 C 295.203 97.381,294.523 99.159,294.941 100.457 C 295.619 102.558,297.807 102.983,298.764 101.200 C 299.926 99.035,298.217 96.042,296.304 96.892 M337.218 97.089 C 335.757 98.241,335.760 100.791,337.224 101.908 C 338.629 102.980,340.333 101.661,340.333 99.500 C 340.333 97.345,338.598 96.002,337.218 97.089 M343.988 98.949 C 343.593 99.987,343.822 100.411,344.805 100.468 C 345.952 100.533,346.230 100.315,346.113 99.441 C 345.970 98.376,344.348 98.000,343.988 98.949 M215.882 98.994 C 214.320 99.946,214.463 102.459,216.111 103.008 C 217.654 103.521,219.073 101.359,218.168 99.873 C 217.525 98.819,216.693 98.499,215.882 98.994 M199.882 104.829 L 200.847 104.833 200.799 106.125 L 200.750 107.417 197.250 107.500 L 193.750 107.583 193.667 110.333 L 193.583 113.083 192.083 113.083 L 190.583 113.083 190.537 110.512 C 190.478 107.236,190.781 107.500,187.083 107.500 C 183.539 107.500,183.626 107.539,183.700 105.973 L 183.750 104.917 188.333 104.833 C 190.854 104.787,194.267 104.767,195.917 104.787 C 197.567 104.808,199.351 104.826,199.882 104.829 M288.170 105.333 C 288.385 105.672,288.377 109.441,288.161 109.844 C 287.997 110.151,287.766 110.167,283.424 110.167 C 278.765 110.167,278.333 110.203,278.333 110.591 C 278.333 111.031,278.817 111.085,283.500 111.167 L 288.250 111.250 288.250 112.167 L 288.250 113.083 282.083 113.130 C 274.205 113.189,274.667 113.373,274.667 110.181 C 274.667 108.014,274.241 108.180,279.931 108.128 L 284.750 108.083 284.803 107.708 L 284.857 107.333 280.084 107.333 C 274.698 107.333,274.665 107.327,274.669 106.286 C 274.672 105.524,274.780 105.271,275.167 105.118 C 275.782 104.874,288.008 105.077,288.170 105.333 M216.967 106.533 C 217.097 106.664,217.167 107.351,217.167 108.513 C 217.167 110.844,216.702 110.653,222.514 110.706 L 227.417 110.750 227.417 111.917 L 227.417 113.083 221.118 113.127 C 214.373 113.174,214.350 113.171,213.907 112.314 C 213.538 111.601,213.616 106.739,214.000 106.496 C 214.368 106.264,216.727 106.294,216.967 106.533 M297.215 106.542 C 297.441 106.711,297.501 107.106,297.538 108.667 L 297.583 110.583 302.667 110.667 L 307.750 110.750 307.750 111.917 L 307.750 113.083 301.313 113.127 C 293.290 113.181,294.104 113.555,294.028 109.780 C 293.957 106.283,293.933 106.333,295.641 106.333 C 296.418 106.333,297.048 106.417,297.215 106.542 M319.000 106.496 C 319.191 106.617,319.270 107.121,319.333 108.619 L 319.417 110.583 324.583 110.667 L 329.750 110.750 329.750 111.917 L 329.750 113.083 323.194 113.127 L 316.637 113.171 316.152 112.651 L 315.667 112.131 315.667 109.407 C 315.667 106.989,315.699 106.664,315.958 106.513 C 316.327 106.299,318.666 106.286,319.000 106.496 M339.000 108.500 L 339.083 110.583 344.250 110.673 C 350.303 110.777,349.526 110.586,349.466 111.958 L 349.417 113.083 342.917 113.121 C 334.783 113.167,335.604 113.554,335.531 109.637 C 335.466 106.159,335.382 106.306,337.400 106.369 L 338.917 106.417 339.000 108.500 M377.000 108.572 C 377.000 109.254,377.073 110.003,377.162 110.237 L 377.323 110.662 382.537 110.706 L 387.750 110.750 387.750 111.917 L 387.750 113.083 381.500 113.131 C 373.026 113.196,373.635 113.438,373.527 109.978 C 373.439 107.154,373.317 107.333,375.328 107.333 L 377.000 107.333 377.000 108.572 " stroke="none" fill="#ffffff" fill-rule="evenodd"></path></g></svg>