<?xml version="1.0" encoding="UTF-8"?>
<svg xmlns="http://www.w3.org/2000/svg" xmlns:xlink="http://www.w3.org/1999/xlink" width="350px" height="61px" viewBox="0 0 351 61" version="1.1">
<g id="surface1">
<path style=" stroke:none;fill-rule:nonzero;fill:rgb(0%,0%,0%);fill-opacity:1;" d="M 25.25 0.582031 C 24.339844 0.828125 22.351562 1.574219 20.945312 2.238281 C 18.542969 3.398438 18.210938 3.894531 18.210938 6.796875 C 18.210938 9.53125 18.460938 10.027344 19.535156 9.613281 C 20.28125 9.367188 22.101562 9.117188 23.59375 9.117188 C 26.078125 9.117188 26.324219 8.867188 26.820312 5.96875 C 27.152344 4.308594 27.566406 2.238281 27.816406 1.410156 C 28.230469 0 28.0625 -0.0820312 25.25 0.582031 Z M 25.25 0.582031 "/>
<path style=" stroke:none;fill-rule:nonzero;fill:rgb(0%,0%,0%);fill-opacity:1;" d="M 17.550781 12.847656 C 12.664062 15.085938 5.214844 22.210938 4.46875 25.363281 C 3.726562 28.34375 5.792969 30.085938 10.679688 30.664062 L 14.816406 31.082031 L 11.175781 38.289062 C 9.1875 42.269531 6.125 47.40625 4.304688 49.8125 C 2.484375 52.214844 1.160156 54.535156 1.324219 54.867188 C 1.902344 55.695312 15.480469 55.695312 16.058594 54.867188 C 16.226562 54.535156 16.144531 53.789062 15.8125 53.210938 C 15.480469 52.628906 16.722656 49.148438 18.792969 45.085938 C 20.777344 41.191406 22.351562 37.460938 22.351562 36.800781 C 22.351562 34.476562 23.925781 35.722656 25.664062 39.449219 C 27.484375 43.097656 27.566406 45.5 26.324219 53.457031 C 26.078125 55.03125 26.574219 55.117188 33.363281 55.363281 C 39.238281 55.53125 40.5625 55.363281 40.5625 54.371094 C 40.5625 53.707031 40.234375 52.960938 39.820312 52.710938 C 39.40625 52.378906 38.824219 50.640625 38.492188 48.652344 C 37.417969 41.355469 33.609375 34.894531 28.0625 30.75 L 24.585938 28.261719 L 26.988281 27.351562 C 32.617188 25.195312 37.003906 22.542969 41.144531 18.730469 C 45.449219 14.835938 47.683594 11.851562 46.9375 11.105469 C 46.773438 10.855469 44.207031 11.105469 41.390625 11.519531 C 36.839844 12.265625 35.84375 12.761719 33.363281 15.746094 C 31.789062 17.570312 29.304688 19.726562 27.980469 20.386719 L 25.414062 21.714844 L 25.992188 17.902344 C 27.152344 10.359375 25.25 9.28125 17.550781 12.847656 Z M 17.714844 20.472656 C 16.722656 24.449219 15.730469 25.777344 13.824219 25.527344 C 11.09375 25.113281 11.011719 22.128906 13.742188 19.972656 C 16.886719 17.488281 18.378906 17.652344 17.714844 20.472656 Z M 17.714844 20.472656 "/>
<path style=" stroke:none;fill-rule:nonzero;fill:rgb(0%,0%,0%);fill-opacity:1;" d="M 49.667969 36.882812 L 49.667969 55.53125 L 58.777344 55.53125 L 58.777344 18.234375 L 49.667969 18.234375 Z M 49.667969 36.882812 "/>
<path style=" stroke:none;fill-rule:nonzero;fill:rgb(0%,0%,0%);fill-opacity:1;" d="M 63.742188 36.964844 L 63.742188 55.613281 L 68.128906 55.363281 L 72.433594 55.117188 L 72.847656 39.367188 L 73.261719 23.621094 L 80.714844 23.371094 C 90.566406 23.125 92.21875 23.953125 92.550781 29.421875 C 92.882812 34.5625 91.640625 35.636719 85.019531 35.636719 C 74.835938 35.636719 74.503906 38.289062 83.695312 48.238281 C 90.398438 55.53125 90.398438 55.53125 94.457031 55.53125 C 97.269531 55.53125 98.511719 55.199219 98.511719 54.453125 C 98.511719 53.871094 96.109375 50.640625 93.132812 47.40625 C 90.152344 44.09375 87.75 41.027344 87.75 40.695312 C 87.75 39.617188 89.984375 38.953125 93.875 38.953125 C 96.277344 38.953125 98.179688 38.375 99.671875 37.214844 C 101.65625 35.636719 101.824219 35.058594 101.824219 29.007812 C 101.824219 21.632812 101.160156 20.472656 96.195312 19.0625 C 94.539062 18.648438 86.507812 18.234375 78.476562 18.234375 L 63.742188 18.234375 Z M 63.742188 36.964844 "/>
<path style=" stroke:none;fill-rule:nonzero;fill:rgb(0%,0%,0%);fill-opacity:1;" d="M 111.175781 19.144531 C 106.375 20.554688 105.960938 22.046875 105.960938 37.128906 C 105.960938 50.226562 106.046875 50.722656 107.949219 52.628906 C 110.515625 55.199219 114.820312 55.777344 128.230469 55.445312 C 137.585938 55.117188 139.242188 54.867188 141.3125 53.375 L 143.628906 51.632812 L 143.875 37.046875 C 144.125 20.804688 144.042969 20.636719 138.414062 19.0625 C 134.6875 18.066406 114.820312 18.066406 111.175781 19.144531 Z M 133.527344 24.78125 C 134.6875 25.691406 134.9375 27.683594 134.9375 36.964844 C 134.9375 47.820312 134.9375 48.070312 132.867188 49.398438 C 131.292969 50.390625 129.308594 50.640625 124.089844 50.390625 C 115.152344 50.058594 115.070312 49.8125 115.070312 36.882812 C 115.070312 26.769531 115.566406 24.863281 118.378906 23.703125 C 120.699219 22.792969 132.121094 23.621094 133.527344 24.78125 Z M 133.527344 24.78125 "/>
<path style=" stroke:none;fill-rule:nonzero;fill:rgb(0%,0%,0%);fill-opacity:1;" d="M 163.910156 19.476562 C 163.910156 20.222656 163.164062 20.71875 161.921875 20.71875 C 160.019531 20.71875 159.9375 20.96875 160.351562 24.199219 C 160.929688 28.34375 162.585938 30.664062 165.152344 30.664062 C 167.71875 30.664062 169.375 28.34375 169.953125 24.199219 C 170.367188 20.96875 170.285156 20.71875 168.378906 20.71875 C 167.140625 20.71875 166.394531 20.222656 166.394531 19.476562 C 166.394531 18.8125 165.8125 18.234375 165.152344 18.234375 C 164.488281 18.234375 163.910156 18.8125 163.910156 19.476562 Z M 167.140625 24.367188 C 168.464844 26.023438 167.386719 28.179688 165.152344 28.179688 C 164.074219 28.179688 163 27.597656 162.75 26.851562 C 162.171875 25.277344 163.578125 23.207031 165.152344 23.207031 C 165.730469 23.207031 166.640625 23.703125 167.140625 24.367188 Z M 167.140625 24.367188 "/>
<path style=" stroke:none;fill-rule:nonzero;fill:rgb(0%,0%,0%);fill-opacity:1;" d="M 271.527344 19.476562 C 271.527344 20.304688 270.699219 20.71875 269.042969 20.71875 C 267.71875 20.71875 266.5625 21.050781 266.5625 21.550781 C 266.5625 21.964844 266.976562 22.378906 267.390625 22.378906 C 267.886719 22.378906 268.050781 23.207031 267.71875 24.367188 C 267.390625 25.777344 267.804688 26.9375 268.960938 28.097656 C 271.03125 30.167969 273.019531 30.335938 275.585938 28.511719 C 276.992188 27.515625 277.40625 26.523438 277.15625 24.78125 C 276.910156 23.457031 277.074219 22.378906 277.488281 22.378906 C 277.820312 22.378906 278.152344 21.964844 278.152344 21.550781 C 278.152344 21.050781 277.242188 20.71875 276.164062 20.71875 C 275.089844 20.71875 274.011719 20.140625 273.679688 19.476562 C 273.433594 18.8125 272.851562 18.234375 272.355469 18.234375 C 271.941406 18.234375 271.527344 18.8125 271.527344 19.476562 Z M 273.515625 22.875 C 275.089844 23.457031 275.253906 27.019531 273.847656 27.597656 C 272.355469 28.097656 269.871094 26.6875 269.871094 25.445312 C 269.871094 24.863281 270.285156 23.953125 270.867188 23.371094 C 272.023438 22.210938 271.859375 22.210938 273.515625 22.875 Z M 273.515625 22.875 "/>
<path style=" stroke:none;fill-rule:nonzero;fill:rgb(0%,0%,0%);fill-opacity:1;" d="M 173.015625 26.105469 C 173.015625 31.824219 173.265625 33.152344 174.257812 33.152344 C 175.167969 33.152344 175.5 32.242188 175.5 29.835938 C 175.5 27.433594 175.832031 26.523438 176.742188 26.523438 C 177.402344 26.523438 177.984375 25.941406 177.984375 25.277344 C 177.984375 24.617188 177.402344 24.035156 176.742188 24.035156 C 175.914062 24.035156 175.5 23.207031 175.5 21.550781 C 175.5 19.890625 175.085938 19.0625 174.257812 19.0625 C 173.265625 19.0625 173.015625 20.386719 173.015625 26.105469 Z M 173.015625 26.105469 "/>
<path style=" stroke:none;fill-rule:nonzero;fill:rgb(0%,0%,0%);fill-opacity:1;" d="M 250.585938 19.644531 C 249.34375 19.808594 247.933594 20.804688 247.4375 21.714844 C 246.609375 23.207031 246.777344 23.785156 248.347656 25.03125 C 250.75 27.019531 259.195312 27.101562 261.097656 25.195312 C 262.671875 23.621094 262.753906 22.046875 261.429688 20.886719 C 260.105469 19.890625 253.730469 19.144531 250.585938 19.644531 Z M 259.691406 21.796875 C 259.9375 22.128906 259.9375 22.875 259.691406 23.621094 C 259.277344 24.53125 257.953125 24.863281 254.640625 24.863281 C 249.671875 24.863281 248.019531 23.621094 250.5 21.796875 C 251.992188 20.636719 258.53125 20.71875 259.691406 21.796875 Z M 259.691406 21.796875 "/>
<path style=" stroke:none;fill-rule:nonzero;fill:rgb(0%,0%,0%);fill-opacity:1;" d="M 280.632812 24.449219 C 280.632812 28.675781 280.882812 29.835938 281.875 29.835938 C 282.621094 29.835938 283.117188 29.089844 283.117188 27.765625 C 283.117188 26.4375 283.613281 25.691406 284.359375 25.691406 C 285.023438 25.691406 285.601562 25.277344 285.601562 24.863281 C 285.601562 24.367188 285.023438 24.035156 284.359375 24.035156 C 283.53125 24.035156 283.117188 23.207031 283.117188 21.550781 C 283.117188 19.890625 282.703125 19.0625 281.875 19.0625 C 280.882812 19.0625 280.632812 20.222656 280.632812 24.449219 Z M 280.632812 24.449219 "/>
<path style=" stroke:none;fill-rule:nonzero;fill:rgb(0%,0%,0%);fill-opacity:1;" d="M 302.984375 20.304688 C 302.984375 20.96875 302.242188 21.550781 301.332031 21.550781 C 300.417969 21.550781 299.675781 21.878906 299.675781 22.378906 C 299.675781 22.792969 300.417969 23.207031 301.332031 23.207031 C 302.40625 23.207031 302.984375 23.785156 302.984375 24.863281 C 302.984375 25.941406 302.40625 26.523438 301.332031 26.523438 C 300.417969 26.523438 299.675781 26.851562 299.675781 27.351562 C 299.675781 27.765625 300.417969 28.179688 301.332031 28.179688 C 302.65625 28.179688 302.984375 28.757812 302.984375 30.664062 C 302.984375 32.324219 303.398438 33.152344 304.226562 33.152344 C 305.222656 33.152344 305.46875 31.824219 305.46875 26.105469 C 305.46875 20.386719 305.222656 19.0625 304.226562 19.0625 C 303.566406 19.0625 302.984375 19.644531 302.984375 20.304688 Z M 302.984375 20.304688 "/>
<path style=" stroke:none;fill-rule:nonzero;fill:rgb(0%,0%,0%);fill-opacity:1;" d="M 346.859375 22.128906 C 346.859375 27.183594 346.03125 27.683594 338.582031 28.011719 C 331.960938 28.34375 329.558594 29.503906 334.691406 30.003906 C 336.597656 30.167969 337.339844 30.664062 337.257812 31.660156 C 337.175781 32.488281 337.589844 33.152344 338.25 33.152344 C 338.914062 33.152344 339.410156 32.65625 339.410156 31.992188 C 339.410156 30.5 339.90625 30.167969 343.796875 29.503906 C 346.28125 29.007812 346.859375 29.175781 346.859375 30.25 C 346.859375 30.914062 346.117188 31.496094 345.207031 31.496094 C 344.292969 31.496094 343.550781 31.824219 343.550781 32.324219 C 343.550781 32.738281 344.046875 33.152344 344.707031 33.152344 C 345.371094 33.152344 346.445312 33.402344 347.191406 33.648438 C 348.351562 34.0625 348.515625 33.152344 348.515625 26.605469 C 348.515625 22.128906 348.183594 19.0625 347.6875 19.0625 C 347.273438 19.0625 346.859375 20.472656 346.859375 22.128906 Z M 346.859375 22.128906 "/>
<path style=" stroke:none;fill-rule:nonzero;fill:rgb(0%,0%,0%);fill-opacity:1;" d="M 182.949219 20.71875 C 182.949219 21.21875 185.597656 21.550781 189.242188 21.550781 L 195.449219 21.550781 L 195.203125 24.199219 L 194.953125 26.9375 L 188.164062 27.183594 C 180.714844 27.433594 178.8125 28.757812 185.269531 29.175781 C 188.082031 29.339844 189.160156 29.753906 189.160156 30.664062 C 189.160156 31.496094 188.164062 31.992188 186.097656 32.15625 C 180.46875 32.65625 182.785156 33.980469 189.160156 33.980469 L 195.367188 33.980469 L 195.367188 36.882812 C 195.367188 38.871094 195.78125 39.78125 196.609375 39.78125 C 197.519531 39.78125 197.851562 38.789062 197.851562 36.054688 L 197.851562 32.324219 L 194.457031 32.324219 C 191.726562 32.324219 191.144531 32.074219 191.394531 30.832031 C 191.558594 29.753906 192.636719 29.339844 195.617188 29.175781 C 197.769531 29.007812 199.507812 28.59375 199.507812 28.097656 C 199.507812 27.683594 199.011719 27.351562 198.429688 27.351562 C 197.769531 27.351562 197.519531 26.191406 197.6875 23.621094 L 198.015625 19.890625 L 190.484375 19.890625 C 186.011719 19.890625 182.949219 20.222656 182.949219 20.71875 Z M 182.949219 20.71875 "/>
<path style=" stroke:none;fill-rule:nonzero;fill:rgb(0%,0%,0%);fill-opacity:1;" d="M 204.472656 20.71875 C 204.472656 21.21875 207.125 21.550781 210.683594 21.550781 C 216.3125 21.550781 216.890625 21.714844 216.890625 23.207031 C 216.890625 24.699219 216.3125 24.863281 210.601562 24.863281 L 204.390625 24.863281 L 204.640625 28.34375 C 204.886719 31.660156 205.054688 31.910156 207.621094 32.15625 C 209.605469 32.324219 210.269531 32.820312 210.269531 34.0625 C 210.269531 35.390625 209.6875 35.636719 206.542969 35.636719 C 203.8125 35.636719 202.820312 35.96875 202.820312 36.882812 C 202.820312 37.875 204.390625 38.125 212.007812 38.125 C 218.960938 38.125 221.113281 37.875 220.863281 37.046875 C 220.617188 36.550781 218.796875 35.96875 216.644531 35.804688 C 213.414062 35.554688 212.753906 35.308594 212.753906 33.898438 C 212.753906 32.570312 213.332031 32.324219 216.0625 32.324219 C 217.886719 32.324219 219.375 31.910156 219.375 31.496094 C 219.375 30.996094 216.726562 30.664062 213.167969 30.664062 C 207.125 30.664062 206.957031 30.582031 206.957031 28.59375 C 206.957031 26.605469 207.125 26.523438 213.167969 26.523438 L 219.375 26.523438 L 219.375 19.890625 L 211.925781 19.890625 C 207.535156 19.890625 204.472656 20.222656 204.472656 20.71875 Z M 204.472656 20.71875 "/>
<path style=" stroke:none;fill-rule:nonzero;fill:rgb(0%,0%,0%);fill-opacity:1;" d="M 225.996094 23.621094 C 225.996094 27.351562 225.996094 27.351562 228.894531 27.351562 C 230.882812 27.351562 231.792969 27.765625 231.792969 28.59375 C 231.792969 29.503906 230.800781 29.835938 228.066406 29.835938 C 225.996094 29.835938 224.34375 30.167969 224.34375 30.664062 C 224.34375 31.164062 227.820312 31.496094 233.035156 31.496094 C 238.25 31.496094 241.726562 31.164062 241.726562 30.664062 C 241.726562 30.167969 240.070312 29.835938 238 29.835938 C 235.269531 29.835938 234.277344 29.503906 234.277344 28.59375 C 234.277344 27.683594 235.1875 27.351562 237.585938 27.351562 L 240.898438 27.351562 L 240.898438 23.621094 C 240.898438 20.96875 240.566406 19.890625 239.738281 19.890625 C 239.078125 19.890625 238.414062 20.472656 238.082031 21.132812 C 237.753906 22.046875 236.34375 22.378906 233.035156 22.378906 C 229.558594 22.378906 228.480469 22.128906 228.480469 21.132812 C 228.480469 20.472656 227.902344 19.890625 227.238281 19.890625 C 226.328125 19.890625 225.996094 20.886719 225.996094 23.621094 Z M 238.25 24.617188 C 238.496094 25.445312 237.171875 25.691406 233.53125 25.691406 C 229.558594 25.691406 228.480469 25.445312 228.480469 24.449219 C 228.480469 23.371094 229.390625 23.207031 233.199219 23.371094 C 236.015625 23.539062 238 24.035156 238.25 24.617188 Z M 238.25 24.617188 "/>
<path style=" stroke:none;fill-rule:nonzero;fill:rgb(0%,0%,0%);fill-opacity:1;" d="M 290.238281 21.714844 C 287.589844 25.445312 289.742188 29.835938 294.210938 29.835938 C 295.617188 29.835938 297.273438 29.421875 297.851562 28.84375 C 299.179688 27.515625 299.179688 22.210938 297.851562 20.886719 C 296.113281 19.144531 291.644531 19.644531 290.238281 21.714844 Z M 296.363281 22.792969 C 296.941406 23.539062 297.191406 24.863281 296.859375 26.191406 C 296.445312 27.847656 295.867188 28.261719 294.046875 28.011719 C 291.726562 27.765625 290.734375 25.363281 291.726562 22.710938 C 292.308594 21.21875 295.039062 21.21875 296.363281 22.792969 Z M 296.363281 22.792969 "/>
<path style=" stroke:none;fill-rule:nonzero;fill:rgb(0%,0%,0%);fill-opacity:1;" d="M 312.09375 20.71875 C 312.09375 21.21875 314.574219 21.550781 317.886719 21.550781 L 323.679688 21.550781 L 323.679688 29.007812 L 317.058594 29.007812 C 311.761719 29.007812 310.4375 29.257812 310.4375 30.25 C 310.4375 31.164062 311.429688 31.496094 314.160156 31.496094 L 317.886719 31.496094 L 317.886719 35.636719 C 317.886719 38.789062 318.21875 39.78125 319.128906 39.78125 C 320.039062 39.78125 320.371094 38.789062 320.371094 35.636719 L 320.371094 31.496094 L 324.09375 31.496094 C 326.828125 31.496094 327.820312 31.164062 327.820312 30.25 C 327.820312 29.589844 327.324219 29.007812 326.828125 29.007812 C 326.082031 29.007812 325.832031 27.683594 326 24.449219 L 326.332031 19.890625 L 319.210938 19.890625 C 314.988281 19.890625 312.09375 20.222656 312.09375 20.71875 Z M 312.09375 20.71875 "/>
<path style=" stroke:none;fill-rule:nonzero;fill:rgb(0%,0%,0%);fill-opacity:1;" d="M 333.78125 20.886719 C 329.808594 24.863281 338.167969 28.757812 342.722656 25.03125 C 344.292969 23.703125 344.460938 23.207031 343.632812 21.714844 C 342.804688 20.222656 341.894531 19.890625 338.75 19.890625 C 336.511719 19.890625 334.359375 20.304688 333.78125 20.886719 Z M 341.8125 21.964844 C 342.804688 23.039062 340.816406 24.863281 338.75 24.863281 C 335.519531 24.863281 333.78125 22.875 335.851562 21.632812 C 337.175781 20.886719 340.902344 21.050781 341.8125 21.964844 Z M 341.8125 21.964844 "/>
<path style=" stroke:none;fill-rule:nonzero;fill:rgb(0%,0%,0%);fill-opacity:1;" d="M 245.867188 29.007812 C 245.867188 29.421875 246.609375 29.835938 247.4375 29.835938 C 250.003906 29.835938 250.335938 31.410156 248.347656 33.566406 C 246.941406 35.140625 246.695312 35.804688 247.4375 37.128906 C 248.929688 39.949219 258.199219 40.527344 261.429688 37.960938 C 262.835938 36.800781 262.671875 34.0625 261.179688 33.484375 C 259.277344 32.738281 259.609375 29.835938 261.59375 29.835938 C 262.503906 29.835938 263.25 29.421875 263.25 29.007812 C 263.25 28.511719 259.773438 28.179688 254.558594 28.179688 C 249.34375 28.179688 245.867188 28.511719 245.867188 29.007812 Z M 257.289062 31.246094 C 257.457031 31.992188 256.710938 32.324219 255.054688 32.324219 C 253.316406 32.324219 252.488281 31.910156 252.488281 30.996094 C 252.488281 29.421875 256.710938 29.671875 257.289062 31.246094 Z M 259.691406 35.308594 C 260.351562 37.046875 258.53125 38.125 254.890625 38.125 C 251.578125 38.125 248.597656 36.382812 249.507812 34.976562 C 250.5 33.402344 259.027344 33.730469 259.691406 35.308594 Z M 259.691406 35.308594 "/>
<path style=" stroke:none;fill-rule:nonzero;fill:rgb(0%,0%,0%);fill-opacity:1;" d="M 269.042969 35.222656 L 269.042969 38.953125 L 283.117188 38.953125 L 283.117188 35.222656 C 283.117188 32.570312 282.785156 31.496094 281.957031 31.496094 C 281.296875 31.496094 280.632812 32.074219 280.304688 32.738281 C 279.972656 33.648438 278.648438 33.980469 275.667969 33.980469 C 272.523438 33.980469 271.527344 33.648438 271.527344 32.738281 C 271.527344 32.074219 270.949219 31.496094 270.285156 31.496094 C 269.375 31.496094 269.042969 32.488281 269.042969 35.222656 Z M 280.632812 36.46875 C 280.632812 36.882812 278.566406 37.296875 276.082031 37.296875 C 273.597656 37.296875 271.527344 36.882812 271.527344 36.46875 C 271.527344 35.96875 273.597656 35.636719 276.082031 35.636719 C 278.566406 35.636719 280.632812 35.96875 280.632812 36.46875 Z M 280.632812 36.46875 "/>
<path style=" stroke:none;fill-rule:nonzero;fill:rgb(0%,0%,0%);fill-opacity:1;" d="M 162.253906 35.636719 L 162.253906 38.953125 L 169.292969 38.953125 C 177.902344 38.953125 178.730469 37.460938 170.367188 37.128906 C 164.488281 36.882812 164.324219 36.800781 164.074219 34.5625 C 163.660156 31.082031 162.253906 31.910156 162.253906 35.636719 Z M 162.253906 35.636719 "/>
<path style=" stroke:none;fill-rule:nonzero;fill:rgb(0%,0%,0%);fill-opacity:1;" d="M 292.222656 35.636719 L 292.222656 38.953125 L 299.261719 38.953125 C 303.398438 38.953125 306.296875 38.621094 306.296875 38.125 C 306.296875 37.628906 303.648438 37.296875 300.089844 37.296875 L 293.878906 37.296875 L 293.878906 34.808594 C 293.878906 33.402344 293.546875 32.324219 293.050781 32.324219 C 292.636719 32.324219 292.222656 33.816406 292.222656 35.636719 Z M 292.222656 35.636719 "/>
<path style=" stroke:none;fill-rule:nonzero;fill:rgb(0%,0%,0%);fill-opacity:1;" d="M 231.128906 34.808594 C 230.550781 35.722656 228.976562 36.714844 227.652344 37.046875 C 226.328125 37.296875 225.417969 37.792969 225.667969 38.207031 C 226.410156 39.449219 228.976562 39.035156 231.046875 37.378906 C 232.953125 35.804688 233.035156 35.804688 236.015625 37.542969 C 238 38.707031 239.492188 39.035156 240.566406 38.539062 C 241.890625 38.042969 241.808594 37.792969 239.410156 37.128906 C 237.917969 36.714844 236.261719 35.722656 235.683594 34.808594 C 234.441406 32.65625 232.453125 32.738281 231.128906 34.808594 Z M 231.128906 34.808594 "/>
<path style=" stroke:none;fill-rule:nonzero;fill:rgb(0%,0%,0%);fill-opacity:1;" d="M 334.445312 36.054688 L 334.445312 38.953125 L 341.894531 38.953125 C 351 38.953125 351.910156 37.460938 342.96875 37.128906 C 337.007812 36.882812 336.511719 36.714844 336.265625 34.976562 C 335.851562 32.074219 334.445312 32.820312 334.445312 36.054688 Z M 334.445312 36.054688 "/>
<path style=" stroke:none;fill-rule:nonzero;fill:rgb(0%,0%,0%);fill-opacity:1;" d="M 160.019531 51.386719 C 160.019531 53.871094 160.183594 55.117188 160.351562 54.039062 C 160.515625 53.042969 161.097656 52.378906 161.507812 52.628906 C 162.503906 53.292969 162.503906 51.964844 161.507812 50.886719 C 161.097656 50.472656 160.597656 49.398438 160.351562 48.484375 C 160.101562 47.574219 159.9375 48.898438 160.019531 51.386719 Z M 160.019531 51.386719 "/>
<path style=" stroke:none;fill-rule:nonzero;fill:rgb(0%,0%,0%);fill-opacity:1;" d="M 163.910156 50.886719 C 163.910156 54.699219 165.234375 56.605469 166.476562 54.617188 C 166.890625 53.957031 167.140625 52.296875 167.054688 50.972656 L 166.972656 48.484375 L 166.640625 50.972656 C 166.0625 55.03125 164.738281 55.445312 164.738281 51.632812 C 164.738281 49.644531 165.152344 48.070312 165.8125 47.820312 C 166.394531 47.574219 166.226562 47.324219 165.402344 47.324219 C 164.160156 47.242188 163.910156 47.90625 163.910156 50.886719 Z M 163.910156 50.886719 "/>
<path style=" stroke:none;fill-rule:nonzero;fill:rgb(0%,0%,0%);fill-opacity:1;" d="M 168.214844 51.550781 L 168.378906 55.945312 L 168.628906 51.964844 C 168.792969 49.8125 169.375 48.070312 169.789062 48.070312 C 170.285156 48.070312 170.449219 49.148438 170.203125 50.722656 C 169.707031 53.210938 169.789062 53.292969 170.53125 51.46875 C 171.609375 49.066406 171.03125 47.242188 169.292969 47.242188 C 168.296875 47.242188 168.050781 48.152344 168.214844 51.550781 Z M 168.214844 51.550781 "/>
<path style=" stroke:none;fill-rule:nonzero;fill:rgb(0%,0%,0%);fill-opacity:1;" d="M 172.1875 51.386719 C 172.1875 54.785156 172.4375 55.53125 173.679688 55.445312 C 174.507812 55.445312 174.671875 55.199219 174.09375 54.949219 C 173.511719 54.785156 173.015625 53.871094 173.015625 53.042969 C 173.015625 52.214844 173.511719 51.304688 174.09375 51.136719 C 174.921875 50.804688 174.921875 50.640625 174.09375 50.640625 C 173.511719 50.558594 173.015625 50.058594 173.015625 49.398438 C 173.015625 48.734375 173.511719 47.988281 174.09375 47.820312 C 174.671875 47.574219 174.507812 47.324219 173.679688 47.324219 C 172.4375 47.242188 172.1875 47.988281 172.1875 51.386719 Z M 172.1875 51.386719 "/>
<path style=" stroke:none;fill-rule:nonzero;fill:rgb(0%,0%,0%);fill-opacity:1;" d="M 176.742188 49.894531 C 176.410156 51.386719 175.996094 53.375 175.832031 54.285156 C 175.5 55.53125 175.582031 55.695312 176.164062 54.699219 C 177.074219 53.292969 178.230469 47.242188 177.652344 47.242188 C 177.488281 47.242188 177.074219 48.484375 176.742188 49.894531 Z M 176.742188 49.894531 "/>
<path style=" stroke:none;fill-rule:nonzero;fill:rgb(0%,0%,0%);fill-opacity:1;" d="M 182.371094 51.386719 C 182.371094 53.871094 182.535156 54.949219 182.703125 53.707031 C 182.867188 52.378906 182.867188 50.390625 182.703125 49.148438 C 182.535156 47.820312 182.371094 48.898438 182.371094 51.386719 Z M 182.371094 51.386719 "/>
<path style=" stroke:none;fill-rule:nonzero;fill:rgb(0%,0%,0%);fill-opacity:1;" d="M 183.859375 51.386719 L 183.945312 55.945312 L 184.773438 52.296875 C 185.351562 49.8125 185.269531 48.402344 184.6875 47.820312 C 184.027344 47.160156 183.777344 48.152344 183.859375 51.386719 Z M 183.859375 51.386719 "/>
<path style=" stroke:none;fill-rule:nonzero;fill:rgb(0%,0%,0%);fill-opacity:1;" d="M 186.011719 49.894531 C 185.847656 51.386719 185.929688 53.375 186.34375 54.285156 C 186.757812 55.445312 187.007812 54.617188 187.007812 51.550781 C 187.089844 46.660156 186.675781 45.914062 186.011719 49.894531 Z M 186.011719 49.894531 "/>
<path style=" stroke:none;fill-rule:nonzero;fill:rgb(0%,0%,0%);fill-opacity:1;" d="M 188.746094 47.90625 C 188.746094 48.320312 189.324219 48.652344 189.988281 48.652344 C 190.648438 48.652344 191.230469 48.320312 191.230469 47.90625 C 191.230469 47.574219 190.648438 47.242188 189.988281 47.242188 C 189.324219 47.242188 188.746094 47.574219 188.746094 47.90625 Z M 188.746094 47.90625 "/>
<path style=" stroke:none;fill-rule:nonzero;fill:rgb(0%,0%,0%);fill-opacity:1;" d="M 192.882812 51.550781 L 193.296875 55.945312 L 193.546875 52.214844 C 193.710938 50.226562 194.292969 48.238281 194.789062 47.90625 C 195.449219 47.492188 195.203125 47.242188 194.125 47.242188 C 192.636719 47.242188 192.46875 47.65625 192.882812 51.550781 Z M 192.882812 51.550781 "/>
<path style=" stroke:none;fill-rule:nonzero;fill:rgb(0%,0%,0%);fill-opacity:1;" d="M 197.601562 47.90625 C 198.101562 48.238281 198.679688 50.226562 198.84375 52.214844 L 199.09375 55.945312 L 199.507812 51.550781 C 199.921875 47.65625 199.753906 47.242188 198.265625 47.242188 C 197.1875 47.242188 196.941406 47.492188 197.601562 47.90625 Z M 197.601562 47.90625 "/>
<path style=" stroke:none;fill-rule:nonzero;fill:rgb(0%,0%,0%);fill-opacity:1;" d="M 201.328125 50.722656 C 201.164062 54.699219 202.40625 56.691406 203.730469 54.617188 C 204.144531 53.957031 204.390625 51.964844 204.308594 50.144531 C 204.226562 46.828125 204.226562 46.828125 203.894531 49.726562 C 203.316406 54.785156 202.488281 55.28125 201.992188 50.972656 L 201.410156 46.828125 Z M 201.328125 50.722656 "/>
<path style=" stroke:none;fill-rule:nonzero;fill:rgb(0%,0%,0%);fill-opacity:1;" d="M 206.046875 51.550781 C 206.460938 56.027344 206.625 55.777344 207.125 50.308594 C 207.289062 48.566406 207.125 47.242188 206.542969 47.242188 C 206.046875 47.242188 205.882812 48.898438 206.046875 51.550781 Z M 206.046875 51.550781 "/>
<path style=" stroke:none;fill-rule:nonzero;fill:rgb(0%,0%,0%);fill-opacity:1;" d="M 208.613281 51.386719 C 208.613281 54.785156 208.863281 55.53125 210.101562 55.445312 C 210.929688 55.445312 211.097656 55.199219 210.515625 54.949219 C 209.9375 54.785156 209.441406 53.871094 209.441406 53.042969 C 209.441406 52.214844 209.9375 51.304688 210.515625 51.136719 C 211.34375 50.804688 211.34375 50.640625 210.515625 50.640625 C 209.9375 50.558594 209.441406 50.058594 209.441406 49.398438 C 209.441406 48.734375 209.9375 47.988281 210.515625 47.820312 C 211.097656 47.574219 210.929688 47.324219 210.101562 47.324219 C 208.863281 47.242188 208.613281 47.988281 208.613281 51.386719 Z M 208.613281 51.386719 "/>
<path style=" stroke:none;fill-rule:nonzero;fill:rgb(0%,0%,0%);fill-opacity:1;" d="M 214.40625 50.886719 C 214.40625 52.960938 214.738281 54.785156 215.152344 55.03125 C 216.394531 55.863281 217.886719 53.210938 217.472656 50.804688 C 217.140625 48.566406 217.140625 48.566406 216.972656 51.136719 C 216.808594 55.117188 215.234375 55.445312 215.234375 51.46875 C 215.234375 49.644531 215.648438 47.988281 216.3125 47.820312 C 216.890625 47.574219 216.726562 47.324219 215.898438 47.324219 C 214.65625 47.242188 214.40625 47.90625 214.40625 50.886719 Z M 214.40625 50.886719 "/>
<path style=" stroke:none;fill-rule:nonzero;fill:rgb(0%,0%,0%);fill-opacity:1;" d="M 218.628906 51.550781 C 218.710938 53.957031 218.960938 55.03125 219.125 53.871094 C 219.375 52.710938 219.953125 51.550781 220.535156 51.21875 C 221.195312 50.722656 221.195312 50.558594 220.453125 50.558594 C 219.871094 50.558594 219.375 50.058594 219.375 49.398438 C 219.375 48.734375 219.871094 47.988281 220.453125 47.820312 C 221.03125 47.574219 220.863281 47.324219 220.039062 47.324219 C 218.796875 47.242188 218.546875 47.90625 218.628906 51.550781 Z M 218.628906 51.550781 "/>
<path style=" stroke:none;fill-rule:nonzero;fill:rgb(0%,0%,0%);fill-opacity:1;" d="M 224.425781 51.136719 C 224.507812 53.375 224.757812 54.371094 224.921875 53.539062 C 225.253906 52.296875 225.5 52.214844 226.082031 53.125 C 226.578125 53.957031 226.824219 53.789062 226.824219 52.378906 C 226.824219 51.304688 226.496094 50.722656 225.996094 50.972656 C 225.582031 51.21875 225.167969 50.722656 225.167969 49.726562 C 225.167969 48.734375 225.582031 48.238281 225.996094 48.484375 C 226.496094 48.734375 226.824219 48.566406 226.824219 48.152344 C 226.824219 47.65625 226.246094 47.242188 225.582031 47.242188 C 224.671875 47.242188 224.34375 48.152344 224.425781 51.136719 Z M 224.425781 51.136719 "/>
<path style=" stroke:none;fill-rule:nonzero;fill:rgb(0%,0%,0%);fill-opacity:1;" d="M 228.480469 50.886719 C 228.480469 52.960938 228.8125 54.785156 229.226562 55.03125 C 230.46875 55.863281 231.957031 53.210938 231.542969 50.804688 C 231.214844 48.566406 231.214844 48.566406 231.046875 51.136719 C 230.882812 55.117188 229.308594 55.445312 229.308594 51.46875 C 229.308594 49.644531 229.722656 47.988281 230.386719 47.820312 C 230.964844 47.574219 230.800781 47.324219 229.972656 47.324219 C 228.730469 47.242188 228.480469 47.90625 228.480469 50.886719 Z M 228.480469 50.886719 "/>
<path style=" stroke:none;fill-rule:nonzero;fill:rgb(0%,0%,0%);fill-opacity:1;" d="M 232.621094 51.386719 C 232.621094 53.625 232.953125 55.53125 233.28125 55.53125 C 234.191406 55.53125 235.929688 53.707031 235.929688 52.710938 C 235.929688 52.296875 235.351562 52.628906 234.691406 53.539062 C 233.53125 55.117188 233.53125 55.117188 233.449219 53.292969 C 233.449219 52.296875 233.945312 51.304688 234.523438 51.136719 C 235.351562 50.804688 235.351562 50.640625 234.523438 50.640625 C 233.945312 50.558594 233.449219 50.058594 233.449219 49.398438 C 233.449219 48.734375 233.945312 47.988281 234.523438 47.820312 C 235.105469 47.574219 234.9375 47.324219 234.109375 47.324219 C 232.867188 47.242188 232.621094 47.988281 232.621094 51.386719 Z M 232.621094 51.386719 "/>
<path style=" stroke:none;fill-rule:nonzero;fill:rgb(0%,0%,0%);fill-opacity:1;" d="M 237.089844 48.320312 C 236.261719 50.640625 237.089844 55.117188 238.414062 55.117188 C 239.324219 55.117188 239.65625 54.121094 239.65625 51.46875 C 239.65625 47.820312 238.082031 45.832031 237.089844 48.320312 Z M 239.242188 51.386719 C 239.242188 53.210938 238.910156 54.699219 238.414062 54.699219 C 238 54.699219 237.585938 53.210938 237.585938 51.386719 C 237.585938 49.5625 238 48.070312 238.414062 48.070312 C 238.910156 48.070312 239.242188 49.5625 239.242188 51.386719 Z M 239.242188 51.386719 "/>
<path style=" stroke:none;fill-rule:nonzero;fill:rgb(0%,0%,0%);fill-opacity:1;" d="M 241.644531 51.550781 C 242.058594 56.027344 242.222656 55.777344 242.71875 50.308594 C 242.886719 48.566406 242.71875 47.242188 242.140625 47.242188 C 241.644531 47.242188 241.476562 48.898438 241.644531 51.550781 Z M 241.644531 51.550781 "/>
<path style=" stroke:none;fill-rule:nonzero;fill:rgb(0%,0%,0%);fill-opacity:1;" d="M 244.457031 51.386719 C 244.457031 53.871094 244.625 54.949219 244.789062 53.707031 C 244.953125 52.378906 244.953125 50.390625 244.789062 49.148438 C 244.625 47.820312 244.457031 48.898438 244.457031 51.386719 Z M 244.457031 51.386719 "/>
<path style=" stroke:none;fill-rule:nonzero;fill:rgb(0%,0%,0%);fill-opacity:1;" d="M 246.695312 47.90625 C 246.695312 48.320312 247.273438 48.652344 247.933594 48.652344 C 248.597656 48.652344 249.175781 48.320312 249.175781 47.90625 C 249.175781 47.574219 248.597656 47.242188 247.933594 47.242188 C 247.273438 47.242188 246.695312 47.574219 246.695312 47.90625 Z M 246.695312 47.90625 "/>
<path style=" stroke:none;fill-rule:nonzero;fill:rgb(0%,0%,0%);fill-opacity:1;" d="M 250.832031 47.574219 C 250.832031 47.738281 251.410156 48.070312 252.074219 48.402344 C 252.738281 48.652344 253.316406 48.484375 253.316406 48.070312 C 253.316406 47.574219 252.738281 47.242188 252.074219 47.242188 C 251.410156 47.242188 250.832031 47.40625 250.832031 47.574219 Z M 250.832031 47.574219 "/>
<path style=" stroke:none;fill-rule:nonzero;fill:rgb(0%,0%,0%);fill-opacity:1;" d="M 263.085938 47.820312 C 263.582031 47.988281 264.574219 47.988281 265.152344 47.820312 C 265.652344 47.574219 265.238281 47.40625 264.078125 47.40625 C 262.917969 47.40625 262.503906 47.574219 263.085938 47.820312 Z M 263.085938 47.820312 "/>
<path style=" stroke:none;fill-rule:nonzero;fill:rgb(0%,0%,0%);fill-opacity:1;" d="M 266.5625 51.386719 C 266.5625 54.785156 266.808594 55.53125 268.050781 55.445312 C 268.878906 55.445312 269.042969 55.199219 268.464844 54.949219 C 267.886719 54.785156 267.390625 53.871094 267.390625 53.042969 C 267.390625 52.214844 267.886719 51.304688 268.464844 51.136719 C 269.292969 50.804688 269.292969 50.640625 268.464844 50.640625 C 267.886719 50.558594 267.390625 50.058594 267.390625 49.398438 C 267.390625 48.734375 267.886719 47.988281 268.464844 47.820312 C 269.042969 47.574219 268.878906 47.324219 268.050781 47.324219 C 266.808594 47.242188 266.5625 47.988281 266.5625 51.386719 Z M 266.5625 51.386719 "/>
<path style=" stroke:none;fill-rule:nonzero;fill:rgb(0%,0%,0%);fill-opacity:1;" d="M 270.203125 48.402344 C 269.375 50.558594 270.203125 55.117188 271.445312 55.117188 C 272.109375 55.117188 272.851562 54.535156 273.019531 53.871094 C 273.433594 52.792969 273.265625 52.792969 272.109375 53.789062 C 270.867188 54.785156 270.699219 54.535156 270.699219 51.386719 C 270.699219 48.566406 270.949219 47.988281 272.023438 48.402344 C 272.6875 48.652344 273.019531 48.566406 272.769531 48.070312 C 272.023438 46.910156 270.699219 47.074219 270.203125 48.402344 Z M 270.203125 48.402344 "/>
<path style=" stroke:none;fill-rule:nonzero;fill:rgb(0%,0%,0%);fill-opacity:1;" d="M 274.261719 51.386719 C 274.261719 53.871094 274.425781 54.949219 274.589844 53.625 C 274.757812 52.378906 275.253906 51.386719 275.667969 51.386719 C 276.082031 51.386719 276.578125 52.378906 276.742188 53.625 C 276.910156 54.949219 277.074219 53.871094 277.074219 51.386719 C 277.074219 48.898438 276.910156 47.65625 276.742188 48.652344 C 276.578125 49.726562 276.082031 50.558594 275.667969 50.558594 C 275.253906 50.558594 274.757812 49.726562 274.589844 48.652344 C 274.425781 47.65625 274.261719 48.898438 274.261719 51.386719 Z M 274.261719 51.386719 "/>
<path style=" stroke:none;fill-rule:nonzero;fill:rgb(0%,0%,0%);fill-opacity:1;" d="M 278.234375 51.386719 L 278.316406 55.945312 L 279.144531 52.296875 C 279.722656 49.8125 279.640625 48.402344 279.0625 47.820312 C 278.398438 47.160156 278.152344 48.152344 278.234375 51.386719 Z M 278.234375 51.386719 "/>
<path style=" stroke:none;fill-rule:nonzero;fill:rgb(0%,0%,0%);fill-opacity:1;" d="M 280.386719 49.894531 C 280.21875 51.386719 280.304688 53.375 280.71875 54.285156 C 281.132812 55.445312 281.378906 54.617188 281.378906 51.550781 C 281.460938 46.660156 281.046875 45.914062 280.386719 49.894531 Z M 280.386719 49.894531 "/>
<path style=" stroke:none;fill-rule:nonzero;fill:rgb(0%,0%,0%);fill-opacity:1;" d="M 283.117188 47.90625 C 283.117188 48.320312 283.699219 48.652344 284.359375 48.652344 C 285.023438 48.652344 285.601562 48.320312 285.601562 47.90625 C 285.601562 47.574219 285.023438 47.242188 284.359375 47.242188 C 283.699219 47.242188 283.117188 47.574219 283.117188 47.90625 Z M 283.117188 47.90625 "/>
<path style=" stroke:none;fill-rule:nonzero;fill:rgb(0%,0%,0%);fill-opacity:1;" d="M 287.421875 51.136719 C 287.257812 54.867188 287.503906 55.53125 288.746094 55.53125 C 289.65625 55.53125 289.824219 55.28125 289.160156 54.867188 C 288.664062 54.535156 288.085938 52.546875 287.835938 50.558594 L 287.503906 46.828125 Z M 287.421875 51.136719 "/>
<path style=" stroke:none;fill-rule:nonzero;fill:rgb(0%,0%,0%);fill-opacity:1;" d="M 290.898438 48.320312 C 290.070312 50.640625 290.898438 55.117188 292.222656 55.117188 C 293.132812 55.117188 293.464844 54.121094 293.464844 51.46875 C 293.464844 47.820312 291.894531 45.832031 290.898438 48.320312 Z M 293.050781 51.46875 C 293.050781 53.457031 292.722656 54.617188 292.222656 54.285156 C 291.808594 54.039062 291.394531 52.464844 291.394531 50.886719 C 291.394531 49.3125 291.808594 48.070312 292.222656 48.070312 C 292.722656 48.070312 293.050781 49.5625 293.050781 51.46875 Z M 293.050781 51.46875 "/>
<path style=" stroke:none;fill-rule:nonzero;fill:rgb(0%,0%,0%);fill-opacity:1;" d="M 295.285156 47.820312 C 294.460938 48.652344 294.625 53.292969 295.535156 54.699219 C 296.527344 56.359375 298.351562 54.617188 297.769531 52.546875 C 297.4375 51.304688 297.355469 51.386719 297.273438 52.878906 C 297.109375 55.945312 295.535156 54.039062 295.535156 50.804688 C 295.535156 48.484375 295.785156 47.988281 296.859375 48.402344 C 297.523438 48.652344 297.851562 48.566406 297.605469 48.070312 C 297.027344 47.074219 296.03125 46.992188 295.285156 47.820312 Z M 295.285156 47.820312 "/>
<path style=" stroke:none;fill-rule:nonzero;fill:rgb(0%,0%,0%);fill-opacity:1;" d="M 305.46875 47.574219 C 305.46875 47.738281 306.046875 48.152344 306.792969 48.402344 C 307.457031 48.652344 307.789062 48.566406 307.539062 48.070312 C 307.042969 47.242188 305.46875 46.910156 305.46875 47.574219 Z M 305.46875 47.574219 "/>
<path style=" stroke:none;fill-rule:nonzero;fill:rgb(0%,0%,0%);fill-opacity:1;" d="M 309.359375 47.738281 C 308.53125 48.566406 308.699219 53.292969 309.609375 54.699219 C 310.851562 56.691406 312.257812 54.535156 311.925781 50.972656 C 311.679688 47.90625 310.601562 46.578125 309.359375 47.738281 Z M 311.265625 51.46875 C 311.265625 53.457031 310.933594 54.617188 310.4375 54.285156 C 310.023438 54.039062 309.609375 52.464844 309.609375 50.886719 C 309.609375 49.3125 310.023438 48.070312 310.4375 48.070312 C 310.933594 48.070312 311.265625 49.5625 311.265625 51.46875 Z M 311.265625 51.46875 "/>
<path style=" stroke:none;fill-rule:nonzero;fill:rgb(0%,0%,0%);fill-opacity:1;" d="M 322.027344 51.386719 C 322.027344 54.785156 322.273438 55.53125 323.515625 55.445312 C 324.34375 55.445312 324.507812 55.199219 323.929688 54.949219 C 323.351562 54.785156 322.855469 53.871094 322.855469 53.042969 C 322.855469 52.214844 323.351562 51.304688 323.929688 51.136719 C 324.757812 50.804688 324.757812 50.640625 323.929688 50.640625 C 323.351562 50.558594 322.855469 50.058594 322.855469 49.398438 C 322.855469 48.734375 323.351562 47.988281 323.929688 47.820312 C 324.507812 47.574219 324.34375 47.324219 323.515625 47.324219 C 322.273438 47.242188 322.027344 47.988281 322.027344 51.386719 Z M 322.027344 51.386719 "/>
<path style=" stroke:none;fill-rule:nonzero;fill:rgb(0%,0%,0%);fill-opacity:1;" d="M 325.421875 51.550781 C 325.503906 54.949219 325.667969 55.363281 326.082031 53.539062 C 326.332031 52.132812 326.992188 51.136719 327.40625 51.21875 C 327.902344 51.304688 328.234375 50.558594 328.234375 49.5625 C 328.234375 48.402344 327.65625 47.574219 326.828125 47.40625 C 325.503906 47.160156 325.335938 47.738281 325.421875 51.550781 Z M 327.820312 49.3125 C 327.820312 49.976562 327.488281 50.558594 326.992188 50.558594 C 326.578125 50.558594 326.164062 49.976562 326.164062 49.3125 C 326.164062 48.652344 326.578125 48.070312 326.992188 48.070312 C 327.488281 48.070312 327.820312 48.652344 327.820312 49.3125 Z M 327.820312 49.3125 "/>
<path style=" stroke:none;fill-rule:nonzero;fill:rgb(0%,0%,0%);fill-opacity:1;" d="M 330.054688 47.820312 C 329.226562 48.652344 329.394531 53.292969 330.304688 54.699219 C 331.296875 56.359375 333.117188 54.617188 332.539062 52.546875 C 332.207031 51.304688 332.125 51.386719 332.042969 52.878906 C 331.878906 55.945312 330.304688 54.039062 330.304688 50.804688 C 330.304688 48.484375 330.550781 47.988281 331.628906 48.402344 C 332.292969 48.652344 332.621094 48.566406 332.375 48.070312 C 331.792969 47.074219 330.800781 46.992188 330.054688 47.820312 Z M 330.054688 47.820312 "/>
<path style=" stroke:none;fill-rule:nonzero;fill:rgb(0%,0%,0%);fill-opacity:1;" d="M 335.105469 47.820312 C 335.683594 48.070312 336.429688 47.988281 336.679688 47.738281 C 337.007812 47.492188 336.511719 47.242188 335.601562 47.324219 C 334.691406 47.324219 334.445312 47.574219 335.105469 47.820312 Z M 335.105469 47.820312 "/>
<path style=" stroke:none;fill-rule:nonzero;fill:rgb(0%,0%,0%);fill-opacity:1;" d="M 337.835938 51.386719 C 337.921875 55.945312 337.921875 55.945312 338.664062 52.792969 C 339.160156 50.804688 339.078125 49.066406 338.582031 48.238281 C 338.003906 47.242188 337.835938 48.070312 337.835938 51.386719 Z M 337.835938 51.386719 "/>
<path style=" stroke:none;fill-rule:nonzero;fill:rgb(0%,0%,0%);fill-opacity:1;" d="M 339.988281 50.308594 C 339.660156 51.964844 339.824219 53.871094 340.238281 54.617188 C 340.816406 55.53125 340.984375 54.699219 341.066406 51.550781 C 341.066406 46.496094 340.652344 46 339.988281 50.308594 Z M 339.988281 50.308594 "/>
<path style=" stroke:none;fill-rule:nonzero;fill:rgb(0%,0%,0%);fill-opacity:1;" d="M 342.472656 47.820312 C 341.644531 48.566406 341.8125 53.292969 342.640625 54.617188 C 343.464844 55.863281 345.207031 55.199219 345.121094 53.625 C 345.121094 52.878906 344.957031 52.960938 344.625 53.707031 C 343.878906 55.53125 342.722656 53.871094 342.722656 50.804688 C 342.722656 48.484375 342.96875 47.988281 344.046875 48.402344 C 344.707031 48.652344 345.039062 48.566406 344.792969 48.070312 C 344.210938 47.074219 343.21875 46.992188 342.472656 47.820312 Z M 342.472656 47.820312 "/>
<path style=" stroke:none;fill-rule:nonzero;fill:rgb(0%,0%,0%);fill-opacity:1;" d="M 346.03125 51.386719 C 346.03125 54.785156 346.28125 55.53125 347.523438 55.445312 C 348.351562 55.445312 348.515625 55.199219 347.9375 54.949219 C 347.359375 54.785156 346.859375 53.871094 346.859375 53.042969 C 346.859375 52.214844 347.359375 51.304688 347.9375 51.136719 C 348.765625 50.804688 348.765625 50.640625 347.9375 50.640625 C 346.363281 50.558594 346.695312 48.238281 348.351562 47.820312 C 349.425781 47.492188 349.261719 47.40625 347.9375 47.324219 C 346.199219 47.242188 346.03125 47.574219 346.03125 51.386719 Z M 346.03125 51.386719 "/>
<path style=" stroke:none;fill-rule:nonzero;fill:rgb(0%,0%,0%);fill-opacity:1;" d="M 256.792969 50.640625 C 256.875 53.042969 256.957031 53.125 258.035156 51.800781 C 259.441406 49.8125 259.441406 48.070312 257.953125 48.070312 C 257.125 48.070312 256.792969 48.898438 256.792969 50.640625 Z M 256.792969 50.640625 "/>
<path style=" stroke:none;fill-rule:nonzero;fill:rgb(0%,0%,0%);fill-opacity:1;" d="M 313.746094 48.980469 C 313.746094 49.726562 314.328125 51.46875 314.988281 52.710938 C 315.734375 54.121094 316.230469 54.535156 316.230469 53.789062 C 316.230469 53.042969 315.652344 51.304688 314.988281 50.058594 C 314.246094 48.652344 313.746094 48.238281 313.746094 48.980469 Z M 313.746094 48.980469 "/>
<path style=" stroke:none;fill-rule:nonzero;fill:rgb(0%,0%,0%);fill-opacity:1;" d="M 318.050781 49.726562 C 318.050781 50.886719 318.21875 51.304688 318.464844 50.722656 C 318.632812 50.226562 318.632812 49.230469 318.464844 48.652344 C 318.21875 48.152344 318.050781 48.566406 318.050781 49.726562 Z M 318.050781 49.726562 "/>
<path style=" stroke:none;fill-rule:nonzero;fill:rgb(0%,0%,0%);fill-opacity:1;" d="M 299.675781 50.058594 C 299.675781 50.722656 300.089844 51.550781 300.503906 51.800781 C 301 52.050781 301.332031 51.71875 301.332031 51.054688 C 301.332031 50.390625 301 49.5625 300.503906 49.3125 C 300.089844 49.066406 299.675781 49.398438 299.675781 50.058594 Z M 299.675781 50.058594 "/>
<path style=" stroke:none;fill-rule:nonzero;fill:rgb(0%,0%,0%);fill-opacity:1;" d="M 304.808594 50.972656 C 304.722656 52.296875 304.972656 53.957031 305.386719 54.617188 C 306.214844 55.863281 307.953125 55.199219 307.953125 53.625 C 307.953125 53.042969 307.621094 53.125 307.125 53.871094 C 306.296875 55.199219 305.882812 54.535156 305.222656 50.558594 C 304.890625 48.734375 304.890625 48.734375 304.808594 50.972656 Z M 304.808594 50.972656 "/>
<path style=" stroke:none;fill-rule:nonzero;fill:rgb(0%,0%,0%);fill-opacity:1;" d="M 319.210938 51.882812 C 318.878906 53.539062 318.796875 55.03125 318.964844 55.199219 C 319.210938 55.445312 319.625 54.285156 319.875 52.546875 C 320.203125 50.886719 320.289062 49.398438 320.121094 49.230469 C 319.875 48.980469 319.460938 50.144531 319.210938 51.882812 Z M 319.210938 51.882812 "/>
<path style=" stroke:none;fill-rule:nonzero;fill:rgb(0%,0%,0%);fill-opacity:1;" d="M 188.746094 50.472656 C 188.746094 50.972656 189.160156 51.386719 189.574219 51.386719 C 190.070312 51.386719 190.402344 52.214844 190.402344 53.125 C 190.402344 54.699219 190.234375 54.785156 188.992188 53.789062 C 187.667969 52.710938 187.585938 52.792969 188.664062 54.039062 C 189.242188 54.867188 190.070312 55.28125 190.484375 55.03125 C 191.644531 54.371094 191.3125 51.71875 189.988281 50.558594 C 189.160156 49.8125 188.746094 49.8125 188.746094 50.472656 Z M 188.746094 50.472656 "/>
<path style=" stroke:none;fill-rule:nonzero;fill:rgb(0%,0%,0%);fill-opacity:1;" d="M 178.148438 52.214844 C 178.148438 53.375 178.316406 53.789062 178.5625 53.210938 C 178.730469 52.710938 178.730469 51.71875 178.5625 51.136719 C 178.316406 50.640625 178.148438 51.054688 178.148438 52.214844 Z M 178.148438 52.214844 "/>
<path style=" stroke:none;fill-rule:nonzero;fill:rgb(0%,0%,0%);fill-opacity:1;" d="M 251.660156 51.136719 C 252.074219 51.304688 252.488281 52.296875 252.488281 53.210938 C 252.488281 54.617188 252.324219 54.699219 251.246094 53.871094 C 250.171875 52.960938 250.085938 53.042969 250.5 54.203125 C 250.832031 54.949219 251.496094 55.445312 251.992188 55.28125 C 253.234375 54.867188 253.152344 51.136719 251.824219 50.886719 C 251.246094 50.804688 251.164062 50.886719 251.660156 51.136719 Z M 251.660156 51.136719 "/>
<path style=" stroke:none;fill-rule:nonzero;fill:rgb(0%,0%,0%);fill-opacity:1;" d="M 334.445312 51.46875 C 334.445312 51.882812 334.855469 52.050781 335.269531 51.800781 C 335.769531 51.550781 336.097656 51.136719 336.097656 50.886719 C 336.097656 50.722656 335.769531 50.558594 335.269531 50.558594 C 334.855469 50.558594 334.445312 50.972656 334.445312 51.46875 Z M 334.445312 51.46875 "/>
<path style=" stroke:none;fill-rule:nonzero;fill:rgb(0%,0%,0%);fill-opacity:1;" d="M 248.347656 53.789062 C 248.347656 54.371094 247.933594 54.535156 247.355469 54.203125 C 246.777344 53.789062 246.695312 53.957031 247.105469 54.617188 C 247.519531 55.363281 247.933594 55.445312 248.597656 54.785156 C 249.09375 54.285156 249.257812 53.625 248.929688 53.292969 C 248.597656 53.042969 248.347656 53.210938 248.347656 53.789062 Z M 248.347656 53.789062 "/>
<path style=" stroke:none;fill-rule:nonzero;fill:rgb(0%,0%,0%);fill-opacity:1;" d="M 258.28125 53.957031 C 258.28125 54.371094 257.785156 54.535156 257.289062 54.203125 C 256.710938 53.871094 256.542969 53.957031 256.875 54.285156 C 257.953125 55.53125 259.691406 55.445312 259.691406 54.203125 C 259.691406 53.539062 259.359375 53.042969 258.945312 53.042969 C 258.613281 53.042969 258.28125 53.457031 258.28125 53.957031 Z M 258.28125 53.957031 "/>
<path style=" stroke:none;fill-rule:nonzero;fill:rgb(0%,0%,0%);fill-opacity:1;" d="M 327.902344 54.371094 C 327.902344 55.28125 328.152344 55.53125 328.398438 54.867188 C 328.648438 54.285156 328.566406 53.539062 328.316406 53.292969 C 328.070312 52.960938 327.820312 53.457031 327.902344 54.371094 Z M 327.902344 54.371094 "/>
<path style=" stroke:none;fill-rule:nonzero;fill:rgb(0%,0%,0%);fill-opacity:1;" d="M 283.613281 54.867188 C 283.863281 55.28125 284.441406 55.363281 284.855469 55.117188 C 285.933594 54.371094 285.765625 54.121094 284.359375 54.121094 C 283.699219 54.121094 283.367188 54.453125 283.613281 54.867188 Z M 283.613281 54.867188 "/>
<path style=" stroke:none;fill-rule:nonzero;fill:rgb(0%,0%,0%);fill-opacity:1;" d="M 334.445312 54.699219 C 334.445312 55.199219 335.023438 55.53125 335.683594 55.53125 C 336.347656 55.53125 336.925781 55.363281 336.925781 55.199219 C 336.925781 55.03125 336.347656 54.699219 335.683594 54.371094 C 335.023438 54.121094 334.445312 54.285156 334.445312 54.699219 Z M 334.445312 54.699219 "/>
</g>
</svg>
